<svg xmlns="http://www.w3.org/2000/svg" xmlns:xlink="http://www.w3.org/1999/xlink" width="500" zoomAndPan="magnify" viewBox="0 0 375 374.999991" height="500" preserveAspectRatio="xMidYMid meet" version="1.2"><defs><clipPath id="d558e2d12f"><path d="M 0 30.046875 L 375 30.046875 L 375 375 L 0 375 Z M 0 30.046875 "/></clipPath></defs><g id="a8786a039b"><path style=" stroke:none;fill-rule:nonzero;fill:#f10d35;fill-opacity:1;" d="M 295.175781 302.144531 C 292.722656 282.367188 272.582031 271.578125 272.582031 271.578125 C 274.207031 267.113281 272.28125 261.894531 274.519531 261.894531 C 276.984375 254.5 274.328125 250.921875 274.328125 250.921875 C 274.328125 250.921875 276.476562 237.613281 260.960938 239.300781 C 260.019531 218.746094 256.058594 171.578125 215.773438 156.671875 C 164.121094 137.550781 139.144531 163.078125 130.558594 171.519531 C 126.832031 174.585938 123.101562 178.324219 120.230469 181.847656 C 117.359375 185.371094 113.960938 189.722656 111.835938 193.46875 C 111.730469 193.089844 109.355469 191.664062 109.253906 191.28125 C 104.128906 183.277344 104.761719 173.101562 109.253906 164.984375 C 114.183594 156.074219 124.808594 151.289062 131.203125 143.511719 C 139.582031 133.316406 145.996094 122.5625 149.925781 109.941406 C 155.679688 91.542969 154.859375 75.339844 144.117188 59.5625 L 142.179688 55.070312 C 139.589844 50.886719 136.746094 47.636719 133.019531 44.738281 C 128.855469 44.738281 131.304688 43.347656 130.410156 42.695312 C 126.355469 39.761719 121.3125 37.5625 116.066406 35.902344 C 109 33.496094 101.597656 32.15625 94.75 31.429688 C 80.710938 37.011719 68.867188 42.71875 55.910156 50.960938 C 54.738281 53.828125 54.101562 60.886719 53.089844 63.710938 C 50.167969 63.351562 45.035156 62.378906 42.117188 62.417969 C 17.789062 79.820312 -1.574219 90.476562 -20.503906 116.082031 C -8.0625 107 20.464844 90.945312 31.789062 85.097656 C 34.632812 85.097656 34.207031 86.589844 34.632812 86.507812 C 43.625 92.582031 65.054688 108.640625 70.210938 127.019531 C 70.339844 127.523438 72.066406 135.429688 68.457031 140.878906 C 66.460938 143.667969 64 147.554688 61.457031 151.824219 C 58.914062 156.082031 56.265625 160.714844 53.886719 164.984375 C 35.136719 192.617188 19.179688 237.441406 93.761719 252.445312 C 93.835938 255.632812 94.050781 262.464844 95.699219 266.003906 C 93.902344 267.382812 94.789062 270.460938 95.699219 276.332031 C 94.703125 278.023438 91.628906 281.46875 91.824219 283.433594 C 90.539062 285.980469 91.070312 288.988281 87.304688 299.570312 L 82.140625 304.726562 L -7.589844 384.132812 L 92.855469 524.910156 L 190.761719 657.0625 C 195.289062 649.976562 200.460938 643.269531 205.90625 636.769531 C 212.15625 619.148438 223.164062 604.804688 237.074219 592.003906 C 237.492188 591.59375 238.574219 590.457031 239.011719 590.066406 C 239.28125 589.449219 240.671875 588.109375 240.949219 587.484375 C 241.5625 586.117188 242.46875 586.140625 243.09375 584.765625 C 245.140625 580.25 247.203125 575.695312 249.636719 571.359375 C 250.847656 569.1875 252.085938 567.007812 253.503906 564.960938 C 254.9375 562.90625 258.675781 557.914062 260.007812 556.175781 C 267.839844 545.339844 274.863281 533.976562 281.484375 522.363281 C 289.441406 508.355469 296.929688 494.140625 305.847656 480.710938 C 314.535156 467.617188 323.734375 454.859375 332.316406 441.703125 C 346.714844 419.625 353.277344 397.921875 372.644531 379.613281 Z M 107.117188 64.746094 C 112.054688 66.234375 116.375 68.171875 118.910156 71.660156 C 131.796875 89.441406 121.566406 110.953125 112.726562 127.890625 C 108.792969 135.410156 102.09375 144.8125 97.636719 151.824219 C 101.347656 133.507812 100.21875 117.375 100.21875 117.375 C 95.167969 90.484375 83.648438 75.449219 71.167969 67.335938 C 89.734375 63.011719 107.117188 64.746094 107.117188 64.746094 Z M 99.570312 231.953125 C 94.273438 229.6875 76.59375 219.722656 66.003906 208.054688 C 66.003906 208.042969 67.515625 205.496094 68.585938 206.773438 C 66.871094 205.496094 69.4375 202.984375 69.875 202.253906 C 76.855469 194.851562 83.089844 188.722656 87.304688 180.773438 C 87.5 188.414062 90.777344 198.003906 93.5 204.941406 C 95.402344 209.730469 98.179688 214.375 102.085938 217.335938 C 100.992188 221.746094 100.015625 228.769531 99.570312 231.953125 Z M 99.570312 231.953125 "/><g clip-rule="nonzero" clip-path="url(#d558e2d12f)"><path style=" stroke:none;fill-rule:nonzero;fill:#f10d35;fill-opacity:1;" d="M 199.773438 366.886719 L 200.859375 369.242188 L 222.484375 398.363281 C 222.484375 398.363281 218.265625 373.007812 199.773438 366.886719 Z M 378.660156 377.09375 L 295.035156 298.195312 C 292.574219 278.417969 273.554688 270.921875 273.554688 270.921875 C 275.191406 266.449219 275.777344 263.515625 275.796875 263.507812 C 278.265625 256.113281 275.667969 251.890625 275.667969 251.890625 C 275.667969 251.890625 278.304688 236.160156 262.792969 237.847656 C 261.851562 217.296875 255.285156 168.929688 215 154.019531 C 163.355469 134.902344 137.25 163.070312 128.660156 171.511719 C 124.9375 174.570312 121.683594 177.917969 118.8125 181.441406 C 115.945312 184.964844 113.484375 188.65625 111.367188 192.398438 C 111.253906 192.027344 111.132812 191.65625 111.023438 191.28125 C 108.523438 182.457031 109.1875 175.808594 113.679688 167.691406 C 118.617188 158.789062 125.851562 152.023438 132.246094 144.242188 C 140.625 134.046875 146.710938 122.742188 150.644531 110.121094 C 156.394531 91.722656 154.289062 70.480469 143.535156 54.710938 L 143.550781 54.710938 C 140.960938 50.527344 137.671875 47.046875 133.953125 44.148438 C 133.101562 43.441406 132.234375 42.753906 131.339844 42.101562 C 127.285156 39.171875 122.238281 36.976562 116.996094 35.3125 C 109.925781 32.902344 102.523438 31.570312 95.683594 30.84375 C 80.710938 29.300781 68.46875 30.777344 68.46875 30.777344 C 64.179688 31.949219 59.277344 41.417969 55.136719 51.632812 C 53.964844 54.488281 52.871094 57.40625 51.859375 60.226562 C 48.941406 59.875 45.996094 59.734375 43.078125 59.769531 C 25.675781 59.96875 8.628906 66.324219 -1.78125 70.144531 C -20.589844 77.042969 -26.816406 99.960938 -28.742188 110.828125 C -29.425781 114.378906 -29.539062 116.636719 -29.539062 116.636719 C -29.539062 116.636719 -29.539062 123.320312 -27.429688 128.613281 C -27.429688 128.613281 -25.433594 127.148438 -22.164062 124.753906 C -9.722656 115.664062 21.25 93.289062 32.582031 87.445312 C 33.003906 87.359375 33.433594 87.265625 33.859375 87.175781 C 42.851562 93.25 64.28125 109.308594 69.445312 127.679688 C 69.566406 128.191406 71.292969 136.09375 67.683594 141.539062 C 65.6875 144.328125 63.230469 148.222656 60.683594 152.492188 C 58.140625 156.75 55.5 161.382812 53.113281 165.648438 C 34.363281 193.277344 14.625 241.21875 89.214844 256.21875 C 89.289062 259.40625 89.960938 262.855469 91.609375 266.394531 C 89.808594 267.78125 88.800781 270.792969 89.707031 276.667969 C 88.710938 278.355469 88.484375 280.300781 88.679688 282.265625 C 87.394531 284.8125 85.140625 290.023438 81.367188 300.601562 L 79.558594 302.308594 L -16.886719 385.488281 L 81.945312 532.015625 L 181.261719 674.785156 L 238.367188 592.589844 L 240.492188 589.523438 L 384.335938 382.441406 Z M 344.617188 368.050781 L 356.933594 382.441406 L 342.476562 403.394531 Z M 341.46875 364.371094 L 320.414062 435.335938 L 290.71875 478.347656 C 309.257812 423.347656 322.269531 362.984375 325.765625 346.027344 Z M 274.550781 279.929688 C 278.726562 287.335938 286.210938 301.691406 286.210938 309.652344 C 286.210938 315.933594 278.789062 330.84375 270.839844 344.488281 L 279.292969 313.648438 L 262.476562 342.960938 C 263.988281 333.976562 265.070312 325.800781 265.859375 318.90625 L 275.789062 306.984375 L 267.082031 309.652344 L 266.644531 311.355469 C 266.886719 308.96875 267.0625 306.847656 267.210938 305.027344 L 267.699219 304.019531 Z M 204.648438 440.613281 C 196.984375 443.917969 190.300781 444.816406 186.070312 445.011719 L 188.296875 406.160156 L 173.890625 424.503906 C 174.148438 410.421875 181.261719 396.535156 181.261719 396.535156 L 161.371094 410.675781 L 159.984375 408.316406 C 165.796875 394.230469 170.488281 364.371094 170.488281 364.371094 C 163.859375 381.519531 150.121094 384.449219 146.382812 384.941406 L 146.300781 384.789062 C 153.777344 382.207031 155.734375 366.992188 155.734375 366.992188 C 147.484375 371.082031 141.054688 370.289062 136.992188 368.796875 L 135.777344 366.699219 C 155.675781 369.328125 165.117188 352.550781 166.535156 349.753906 C 172.042969 345.871094 177.078125 345.21875 180.914062 345.664062 C 182.164062 345.675781 183.359375 345.816406 184.558594 346.011719 L 190.402344 361.164062 L 190.402344 347.75 C 191.273438 348.105469 192.128906 348.46875 192.96875 348.878906 C 192.96875 348.878906 219.421875 367.402344 238.328125 358.964844 C 238.328125 358.964844 220.464844 358.863281 204.945312 351.109375 C 218.28125 353 230.511719 351.929688 245.070312 341.347656 C 264.964844 326.910156 260.007812 294.09375 260.007812 294.09375 L 259.867188 294.242188 C 263.773438 289.769531 266.800781 285.136719 269.09375 280.859375 L 265.574219 308.402344 L 256.457031 354.386719 C 248.964844 398.0625 233.269531 420.785156 218.160156 432.558594 L 188.296875 369.066406 Z M 108.425781 265.191406 C 107.316406 260.203125 108.425781 256.773438 108.425781 256.773438 C 136.960938 281.503906 158.023438 288.886719 166.851562 291.039062 C 165.109375 291.402344 163.332031 291.761719 161.539062 292.097656 C 155.734375 291.007812 149.691406 289.558594 143.523438 287.65625 C 133.355469 284.511719 122.84375 280.121094 112.460938 274.074219 C 111.480469 272.683594 110.6875 271.308594 110.074219 269.984375 L 143.523438 287.65625 Z M 138.164062 329.371094 C 130.207031 326.761719 126.324219 317.957031 124.675781 312.800781 C 135.042969 317.851562 147.101562 322.671875 159.183594 325.246094 C 155.277344 327.734375 146.671875 332.160156 138.164062 329.371094 Z M 161.875 347.464844 C 155.171875 349.71875 148.578125 349.8125 142.5625 348.804688 C 151.214844 346.277344 156.433594 340.660156 158.976562 337.136719 Z M 142.265625 333.894531 C 142.238281 333.910156 142.226562 333.929688 142.199219 333.941406 L 141.929688 333.941406 C 142.042969 333.929688 142.152344 333.910156 142.265625 333.894531 Z M 190.851562 326.4375 C 191.949219 330.484375 195.234375 339.914062 202.34375 342.707031 C 202.34375 342.707031 197.246094 332.066406 197.183594 325.03125 C 197.535156 324.945312 197.890625 324.863281 198.242188 324.765625 C 199.640625 326.484375 211.535156 340.332031 230.21875 335.488281 C 230.21875 335.488281 224.035156 335.476562 218.859375 332.484375 C 225.65625 333.230469 241.992188 332.757812 252.703125 313.648438 C 252.703125 313.648438 242.328125 324.515625 232.019531 327.539062 C 241.566406 320.386719 245.070312 306.984375 245.070312 306.984375 L 244.464844 307.03125 C 248.84375 304.449219 252.675781 301.488281 255.957031 298.324219 L 255.851562 298.449219 C 253.839844 357.335938 202.699219 350.511719 191.808594 342.707031 C 180.914062 334.890625 171.429688 342.707031 171.429688 342.707031 C 168.410156 344.761719 165.371094 346.242188 162.332031 347.296875 L 169.050781 326.808594 C 170.554688 326.96875 172.074219 327.089844 173.570312 327.152344 L 173.535156 327.207031 C 179.371094 327.808594 185.191406 327.460938 190.851562 326.4375 Z M 201.746094 323.707031 C 208.402344 321.554688 214.6875 318.679688 220.3125 315.617188 L 220.332031 315.605469 C 220.675781 315.421875 220.996094 315.242188 221.332031 315.058594 C 226.96875 314.199219 232.039062 312.765625 236.613281 310.917969 C 235.050781 315.988281 231.179688 325.273438 222.96875 327.964844 C 214.320312 330.796875 205.550781 326.175781 201.746094 323.707031 Z M 242.441406 301.09375 C 243.570312 300.085938 244.6875 299.035156 245.804688 297.925781 L 245.816406 297.925781 C 247.789062 295.957031 249.765625 293.816406 251.777344 291.476562 L 257.5 285.753906 C 260.960938 283.046875 263.820312 280.453125 266.179688 278.019531 C 262.199219 288.6875 251.40625 296.332031 242.441406 301.09375 Z M 257.800781 366.296875 L 257.816406 366.296875 L 257.835938 366.289062 C 260.167969 364.003906 263.707031 360.453125 267.699219 355.984375 C 270.324219 353.035156 273.152344 349.691406 275.964844 346.082031 C 273.195312 359.1875 263.421875 396.765625 238.171875 422.484375 C 247.121094 405.25 253.417969 385.21875 257.800781 366.296875 Z M 267.328125 241.910156 C 270.671875 245.265625 273.476562 251.109375 269.570312 260.585938 L 271.527344 257.808594 C 271.707031 259.71875 271.417969 261.734375 270.859375 263.777344 C 265.675781 271.269531 254.882812 285.277344 254.882812 285.277344 C 251.996094 287.898438 248.375 291.027344 244.15625 294.347656 C 239.925781 297.65625 235.117188 301.152344 229.839844 304.511719 C 239.941406 293.011719 252.644531 275.191406 257.5 268.269531 C 251.984375 275.554688 241.304688 286.023438 231.300781 295.261719 C 221.285156 304.496094 211.992188 312.492188 209.261719 314.816406 C 201.703125 317.480469 194.449219 319.425781 188.59375 320.777344 L 199.773438 309.652344 L 178.625 321.980469 C 175.40625 321.992188 172.183594 321.785156 168.96875 321.273438 C 158.550781 319.605469 149.085938 316.59375 140.625 312.9375 C 160.664062 316.003906 178.457031 310.265625 178.457031 310.265625 C 153.804688 311.820312 130.578125 302.324219 114.089844 292.976562 C 122.65625 295.476562 131.191406 297.628906 133.558594 298.207031 C 124.976562 295.773438 117.25 291.039062 110.96875 286.113281 C 111.238281 284.476562 111.757812 283.078125 112.375 281.933594 C 133.847656 294.152344 172.789062 309 218.691406 293.035156 C 217.6875 293.238281 202.25 296.164062 180.433594 294.550781 C 197.328125 290.332031 231.648438 279.246094 255.386719 254.707031 C 255.386719 254.707031 257.546875 253.027344 260.109375 250.589844 C 262.695312 248.164062 265.675781 244.957031 267.328125 241.910156 Z M 214.925781 275.65625 L 215.671875 275.324219 C 215.441406 275.445312 215.195312 275.554688 214.953125 275.65625 C 214.953125 275.65625 214.9375 275.65625 214.925781 275.65625 Z M 134.773438 187.683594 C 139.804688 180.640625 145.371094 174.316406 150.273438 169.21875 C 155.082031 164.804688 160.71875 160.460938 167.308594 156.265625 C 168.640625 155.714844 170.027344 155.269531 171.402344 154.996094 L 171.417969 154.996094 L 195.800781 198 L 186.453125 154.039062 C 186.527344 154.113281 194.898438 160.792969 203.824219 170.945312 C 212.707031 181.058594 222.148438 194.617188 224.46875 208.449219 C 224.191406 206.203125 219.792969 169.992188 207.929688 157.292969 C 217.230469 160.253906 226.234375 165.597656 232.96875 174.921875 C 253.53125 203.433594 255.878906 245.253906 256.113281 250.878906 C 253.941406 252.648438 251.40625 254.605469 248.460938 256.691406 L 249.78125 219.484375 L 238.480469 263.289062 C 235.488281 265.128906 232.234375 267.007812 228.738281 268.890625 L 231.152344 251.890625 L 223.5 271.613281 C 221.550781 272.59375 219.492188 273.570312 217.398438 274.53125 L 193.210938 254.707031 L 210.0625 274.585938 C 204.980469 273.273438 199.734375 271.308594 194.574219 268.988281 L 157.140625 207.507812 L 172.191406 256.785156 C 171.679688 256.460938 171.175781 256.160156 170.683594 255.835938 L 145.433594 223 L 154.324219 258.675781 C 152.386719 258.398438 150.398438 258.015625 148.351562 257.53125 L 131.070312 215.496094 L 137.316406 254.195312 C 134.996094 253.347656 132.683594 252.453125 130.390625 251.507812 C 129.683594 250.785156 129.027344 250.066406 128.398438 249.332031 C 124.488281 238.203125 118.964844 213.296875 134.773438 187.683594 Z M 111.898438 247.671875 C 115.777344 250.605469 119.894531 253.335938 124.171875 255.871094 L 124.363281 256.085938 L 124.546875 256.097656 C 152.730469 272.65625 187 280.726562 196.800781 282.796875 C 191.875 284.496094 186.695312 286.113281 181.214844 287.605469 C 161.214844 288.25 125.453125 265.851562 107.5625 253.65625 C 108.113281 251.546875 110.261719 249.207031 111.898438 247.671875 Z M 106.34375 65.410156 C 111.28125 66.894531 115.609375 68.832031 118.136719 72.328125 C 131.023438 90.101562 120.796875 111.621094 111.957031 128.554688 C 108.019531 136.078125 103.089844 142.925781 98.628906 149.945312 C 102.34375 131.621094 101.132812 118.042969 101.132812 118.042969 C 96.082031 91.144531 85.734375 75.867188 73.246094 67.75 C 91.8125 63.417969 106.34375 65.410156 106.34375 65.410156 Z M 93.0625 116.972656 L 93.074219 116.972656 C 93.074219 116.972656 93.054688 116.859375 93.007812 116.707031 C 92.375 113.039062 91.5625 109.375 90.492188 105.71875 C 89.015625 100.613281 87.472656 95.671875 85.027344 90.957031 C 84.144531 89.234375 83.117188 87.902344 82.007812 86.734375 C 81.804688 86.410156 81.625 86.101562 81.441406 85.820312 L 83.398438 86.472656 C 100.9375 105.152344 100.023438 130.128906 93.203125 152.632812 C 93.667969 149.089844 94.023438 145.539062 94.257812 142.023438 C 94.835938 133.484375 94.460938 125.199219 93.0625 116.972656 Z M 57.496094 170.273438 C 63.042969 159.164062 68.09375 150.347656 71.078125 145.316406 C 72.066406 143.992188 73.042969 142.472656 73.835938 140.792969 C 73.855469 140.765625 73.882812 140.726562 73.882812 140.726562 L 73.871094 140.726562 C 75.289062 137.726562 76.15625 134.261719 75.625 130.476562 C 74.851562 124.890625 71.335938 115.589844 65.214844 106.734375 C 71.945312 113.679688 80.890625 125.65625 79.210938 138.992188 C 78 144.929688 75.839844 150.570312 73.078125 155.285156 C 68.1875 163.636719 62.089844 171.046875 58.363281 180.078125 C 57.792969 181.457031 57.28125 182.875 56.835938 184.3125 C 56.273438 179.964844 56.425781 175.277344 57.496094 170.273438 Z M 63.554688 201.945312 C 68.160156 194.09375 74.722656 168.230469 74.722656 168.230469 C 71.441406 176.359375 62.667969 188.792969 59.210938 193.574219 C 58.785156 192.472656 58.390625 191.347656 58.054688 190.191406 C 58.859375 185.542969 60.910156 180.769531 62.847656 176.835938 C 64.691406 173.089844 66.996094 169.578125 69.3125 166.105469 C 95.550781 134.332031 77.441406 111.601562 77.441406 111.601562 L 77.425781 111.621094 C 76.3125 109.617188 75.019531 107.726562 73.460938 106 C 73.902344 106.441406 74.328125 106.886719 74.722656 107.332031 C 73.882812 106.324219 72.585938 104.796875 70.898438 102.941406 C 70.863281 102.886719 70.804688 102.824219 70.757812 102.785156 C 66.152344 97.726562 58.785156 90.359375 50.285156 84.640625 C 52.816406 84.398438 55.230469 84.230469 57.523438 84.132812 C 64.847656 88.960938 73.0625 95.964844 77.859375 105.085938 C 77.644531 104.367188 74.179688 92.632812 69.144531 84.117188 C 70.664062 84.191406 72.054688 84.285156 73.332031 84.394531 C 77.886719 88.039062 86.191406 97.390625 89.550781 118.734375 C 89.792969 126.570312 88.847656 134.671875 88.050781 142.023438 C 86.742188 154.035156 84.347656 165.921875 79.0625 176.84375 C 74.769531 185.699219 68.90625 193.796875 63.6875 202.1875 C 63.65625 202.113281 63.59375 202.027344 63.554688 201.945312 Z M 68.847656 208.773438 C 68.847656 208.765625 68.867188 208.730469 68.878906 208.71875 C 69.304688 207.984375 69.734375 207.273438 70.171875 206.546875 C 77.152344 199.136719 82.613281 191.21875 86.828125 183.273438 C 87.023438 190.910156 90.003906 198.671875 92.726562 205.605469 C 94.628906 210.398438 97.40625 215.039062 101.3125 217.996094 C 100.21875 222.410156 99.503906 226.375 99.054688 229.550781 C 93.753906 227.289062 79.4375 220.4375 68.847656 208.773438 Z M 226.621094 571.167969 L 256.105469 483.953125 L 200.832031 605.683594 C 195.15625 603.148438 189.699219 598.710938 184.570312 593.140625 C 204.785156 576.371094 228.691406 510.457031 230.144531 506.382812 C 214.328125 546.46875 187.523438 570.710938 174.664062 580.613281 C 168.222656 571.308594 162.574219 560.855469 157.996094 551.382812 C 177.691406 556.609375 196.472656 546.851562 197.386719 546.359375 C 174.691406 550.3125 158.78125 536.945312 150.066406 526.433594 C 169.386719 542.054688 199.773438 519.917969 199.773438 519.917969 C 183.179688 519.515625 167.707031 507.738281 154.988281 493.503906 C 181.261719 503.226562 192.96875 491.035156 192.96875 491.035156 C 168.054688 494.378906 148.078125 481.023438 140.808594 475.300781 C 140.484375 474.824219 140.152344 474.359375 139.851562 473.894531 C 172.152344 491.175781 204.300781 472.019531 204.300781 472.019531 C 188.363281 476.78125 173.355469 473.808594 160.914062 468.375 C 175.78125 470.332031 188.179688 466.742188 188.179688 466.742188 C 209.183594 462.664062 224.675781 446.789062 236.109375 426.292969 C 250.476562 415.707031 279.460938 387.550781 287.253906 329.101562 C 287.308594 329.007812 287.355469 328.925781 287.417969 328.824219 C 285.847656 353.082031 281.128906 407.160156 268.613281 438.132812 C 268.667969 438.105469 268.707031 438.097656 268.75 438.066406 C 278.210938 417.320312 305.644531 354.40625 305.503906 322.335938 L 318.820312 337.910156 C 318.363281 387.25 282.90625 472.113281 258.03125 525.667969 Z M 199.773438 366.886719 L 200.859375 369.242188 L 222.484375 398.363281 C 222.484375 398.363281 218.265625 373.007812 199.773438 366.886719 Z M 199.773438 366.886719 L 200.859375 369.242188 L 222.484375 398.363281 C 222.484375 398.363281 218.265625 373.007812 199.773438 366.886719 Z M 199.773438 366.886719 "/></g><path style=" stroke:none;fill-rule:nonzero;fill:#f10d35;fill-opacity:1;" d="M 146.597656 84.976562 C 144.316406 42.828125 110.480469 48.457031 110.480469 48.457031 C 123.6875 49.148438 130.53125 60.5 133.300781 66.742188 C 130.699219 65.273438 128.089844 64.359375 125.796875 63.789062 C 121.636719 62.714844 118.554688 62.789062 118.554688 62.789062 C 118.554688 62.789062 120.15625 64.636719 122.125 68.003906 C 127.679688 77.554688 136.03125 99.390625 118.554688 126.382812 C 118.554688 126.382812 132.199219 117.707031 135.757812 113.15625 C 135.574219 113.773438 131.433594 127.496094 124.75 138.726562 C 121.621094 143.980469 117.941406 148.695312 113.835938 151.261719 C 113.667969 151.378906 113.5 151.484375 113.316406 151.59375 C 113.378906 151.558594 113.523438 151.472656 113.78125 151.335938 C 116.128906 150.066406 126.496094 144.074219 135.171875 132.722656 C 141.566406 124.371094 147.035156 113.128906 147.71875 98.710938 C 147.96875 93.371094 147.523438 88.851562 146.597656 84.976562 Z M 146.597656 84.976562 "/><path style=" stroke:none;fill-rule:nonzero;fill:#f10d35;fill-opacity:1;" d="M 115.160156 62.789062 L 120.550781 59.503906 C 120.550781 59.503906 133.429688 67.488281 134.601562 81.105469 C 134.601562 81.105469 119.617188 63.949219 115.160156 62.789062 Z M 119.140625 143.09375 L 112.121094 153.890625 C 131.148438 148.070312 137.820312 128.269531 139.574219 119.792969 C 139.429688 119.878906 139.28125 119.941406 139.132812 119.953125 C 135.910156 131.59375 119.140625 143.09375 119.140625 143.09375 Z M 268.46875 341.507812 L 264.015625 346.132812 L 263.429688 349.253906 L 260.617188 347.378906 L 268.191406 289.828125 C 264.667969 294.960938 260.289062 298.542969 256.125 301.050781 C 257.257812 326.101562 218.34375 332.882812 218.34375 332.882812 C 229.15625 328.53125 236.949219 319.425781 241.421875 312.9375 C 240.242188 311.242188 240.242188 308.867188 240.242188 308.867188 L 243.839844 306.515625 C 243.746094 306.527344 243.648438 306.527344 243.519531 306.527344 L 243.148438 306.277344 C 242.339844 306.460938 241.882812 306.527344 241.882812 306.527344 L 242.515625 305.867188 L 235.105469 301.050781 L 270.570312 269.183594 C 270.570312 269.183594 269.050781 275.054688 268.46875 276.46875 C 268.21875 277.066406 268.546875 277.972656 268.722656 279.0625 L 270.570312 277.175781 C 270.570312 277.175781 277.382812 270.429688 273.457031 279.824219 L 278.425781 281.632812 Z M 273.242188 280.394531 L 273.25 280.320312 C 273.234375 280.339844 273.226562 280.367188 273.222656 280.394531 Z M 200.417969 350.667969 C 206.050781 360.0625 237.808594 359.347656 237.808594 359.347656 L 213.304688 349.253906 Z M 200.417969 350.667969 "/></g></svg>