<svg xmlns="http://www.w3.org/2000/svg" xmlns:xlink="http://www.w3.org/1999/xlink" width="4157" zoomAndPan="magnify" viewBox="0 0 3117.75 368.250002" height="491" preserveAspectRatio="xMidYMid meet" version="1.0"><defs><g/><clipPath id="d345e3c36c"><path d="M 3.792969 0 L 3113.707031 0 L 3113.707031 367.5 L 3.792969 367.5 Z M 3.792969 0 " clip-rule="nonzero"/></clipPath><clipPath id="2eb7f7a038"><path d="M 0.792969 0 L 3110.707031 0 L 3110.707031 367.5 L 0.792969 367.5 Z M 0.792969 0 " clip-rule="nonzero"/></clipPath><clipPath id="e7d1a0537d"><rect x="0" width="3111" y="0" height="368"/></clipPath><clipPath id="7e9f6cdb9a"><rect x="0" width="3111" y="0" height="368"/></clipPath></defs><g clip-path="url(#d345e3c36c)"><g transform="matrix(1, 0, 0, 1, 3, 0.000000000000071851)"><g clip-path="url(#7e9f6cdb9a)"><g clip-path="url(#2eb7f7a038)"><g transform="matrix(1, 0, 0, 1, 0.000000000000000444, 0.000000000000071851)"><g clip-path="url(#e7d1a0537d)"><g fill="#ffffff" fill-opacity="1"><g transform="translate(-16.134317, 333.847987)"><g><path d="M 217.75 0 L 26.625 0 L 26.625 -293.75 L 214.46875 -293.75 C 232.90625 -293.75 248.609375 -292.28125 261.578125 -289.34375 C 274.554688 -286.40625 285.242188 -282.375 293.640625 -277.25 C 302.035156 -272.132812 308.554688 -266.226562 313.203125 -259.53125 C 317.847656 -252.84375 321.125 -245.707031 323.03125 -238.125 C 324.945312 -230.550781 325.90625 -222.9375 325.90625 -215.28125 C 325.90625 -199.03125 321.671875 -185.644531 313.203125 -175.125 C 304.734375 -164.613281 293.601562 -157.378906 279.8125 -153.421875 C 298.113281 -149.328125 312.109375 -141.75 321.796875 -130.6875 C 331.492188 -119.625 336.34375 -105.421875 336.34375 -88.078125 C 336.34375 -79.753906 335.179688 -71.390625 332.859375 -62.984375 C 330.546875 -54.585938 326.722656 -46.632812 321.390625 -39.125 C 316.066406 -31.613281 308.863281 -24.921875 299.78125 -19.046875 C 290.695312 -13.171875 279.394531 -8.523438 265.875 -5.109375 C 252.363281 -1.703125 236.320312 0 217.75 0 Z M 94.84375 -56.953125 L 216.109375 -56.953125 C 229.359375 -56.953125 239.632812 -58.175781 246.9375 -60.625 C 254.238281 -63.082031 259.359375 -66.804688 262.296875 -71.796875 C 265.234375 -76.785156 266.703125 -82.894531 266.703125 -90.125 C 266.703125 -97.5 265.234375 -103.644531 262.296875 -108.5625 C 259.359375 -113.476562 254.238281 -117.164062 246.9375 -119.625 C 239.632812 -122.082031 229.359375 -123.3125 216.109375 -123.3125 L 94.84375 -123.3125 Z M 94.84375 -178.421875 L 216.109375 -178.421875 C 226.753906 -178.421875 235.046875 -179.679688 240.984375 -182.203125 C 246.929688 -184.734375 251.097656 -188.21875 253.484375 -192.65625 C 255.878906 -197.09375 257.078125 -202.039062 257.078125 -207.5 C 257.078125 -213.101562 255.878906 -218.085938 253.484375 -222.453125 C 251.097656 -226.828125 246.929688 -230.273438 240.984375 -232.796875 C 235.046875 -235.328125 226.753906 -236.59375 216.109375 -236.59375 L 94.84375 -236.59375 Z M 94.84375 -178.421875 "/></g></g></g><g fill="#ffffff" fill-opacity="1"><g transform="translate(332.297002, 333.847987)"><g><path d="M 309.921875 0 L 278.796875 -57.5625 L 112.046875 -57.5625 L 80.90625 0 L 8.1875 0 L 167.359375 -293.75 L 223.484375 -293.75 L 382.640625 0 Z M 195.421875 -211.8125 L 142.984375 -114.71875 L 247.859375 -114.71875 Z M 195.421875 -211.8125 "/></g></g><g transform="translate(723.130005, 333.847987)"><g><path d="M 14.34375 -78.65625 L 73.53125 -102.21875 C 73.53125 -102.21875 74.179688 -100.988281 75.484375 -98.53125 C 76.785156 -96.070312 78.832031 -92.894531 81.625 -89 C 84.425781 -85.113281 88.046875 -80.984375 92.484375 -76.609375 C 96.921875 -72.242188 102.28125 -68.113281 108.5625 -64.21875 C 114.84375 -60.320312 122.113281 -57.144531 130.375 -54.6875 C 138.644531 -52.226562 148.035156 -51 158.546875 -51 C 176.984375 -51 191.59375 -54.34375 202.375 -61.03125 C 213.164062 -67.726562 220.882812 -77.082031 225.53125 -89.09375 C 230.175781 -101.113281 232.5 -115.113281 232.5 -131.09375 L 232.5 -293.75 L 300.703125 -293.75 L 300.703125 -131.09375 C 300.703125 -101.875 295.515625 -76.847656 285.140625 -56.015625 C 274.765625 -35.191406 259.0625 -19.285156 238.03125 -8.296875 C 217 2.691406 190.503906 8.1875 158.546875 8.1875 C 141.472656 8.1875 126.28125 6.613281 112.96875 3.46875 C 99.65625 0.332031 87.945312 -3.828125 77.84375 -9.015625 C 67.738281 -14.203125 59.03125 -19.867188 51.71875 -26.015625 C 44.414062 -32.160156 38.335938 -38.304688 33.484375 -44.453125 C 28.640625 -50.597656 24.816406 -56.265625 22.015625 -61.453125 C 19.222656 -66.640625 17.242188 -70.800781 16.078125 -73.9375 C 14.921875 -77.082031 14.34375 -78.65625 14.34375 -78.65625 Z M 14.34375 -78.65625 "/></g></g><g transform="translate(1050.462886, 333.847987)"><g><path d="M 214.265625 8.1875 C 187.628906 8.1875 163.796875 5.523438 142.765625 0.203125 C 121.742188 -5.117188 103.445312 -12.5625 87.875 -22.125 C 72.3125 -31.6875 59.375 -42.953125 49.0625 -55.921875 C 38.75 -68.890625 31.066406 -83.085938 26.015625 -98.515625 C 20.960938 -113.953125 18.4375 -130.070312 18.4375 -146.875 C 18.4375 -163.664062 20.960938 -179.773438 26.015625 -195.203125 C 31.066406 -210.640625 38.75 -224.84375 49.0625 -237.8125 C 59.375 -250.789062 72.3125 -262.054688 87.875 -271.609375 C 103.445312 -281.171875 121.742188 -288.613281 142.765625 -293.9375 C 163.796875 -299.269531 187.628906 -301.9375 214.265625 -301.9375 C 240.890625 -301.9375 264.71875 -299.269531 285.75 -293.9375 C 306.78125 -288.613281 325.113281 -281.171875 340.75 -271.609375 C 356.382812 -262.054688 369.320312 -250.789062 379.5625 -237.8125 C 389.8125 -224.84375 397.460938 -210.640625 402.515625 -195.203125 C 407.566406 -179.773438 410.09375 -163.664062 410.09375 -146.875 C 410.09375 -130.070312 407.566406 -113.953125 402.515625 -98.515625 C 397.460938 -83.085938 389.78125 -68.890625 379.46875 -55.921875 C 369.15625 -42.953125 356.210938 -31.6875 340.640625 -22.125 C 325.078125 -12.5625 306.78125 -5.117188 285.75 0.203125 C 264.71875 5.523438 240.890625 8.1875 214.265625 8.1875 Z M 214.265625 -51 C 236.796875 -51 256.050781 -53.628906 272.03125 -58.890625 C 288.007812 -64.148438 300.984375 -71.25 310.953125 -80.1875 C 320.921875 -89.132812 328.222656 -99.378906 332.859375 -110.921875 C 337.503906 -122.460938 339.828125 -134.445312 339.828125 -146.875 C 339.828125 -159.4375 337.503906 -171.453125 332.859375 -182.921875 C 328.222656 -194.390625 320.921875 -204.597656 310.953125 -213.546875 C 300.984375 -222.492188 288.007812 -229.59375 272.03125 -234.84375 C 256.050781 -240.101562 236.796875 -242.734375 214.265625 -242.734375 C 191.734375 -242.734375 172.476562 -240.101562 156.5 -234.84375 C 140.519531 -229.59375 127.546875 -222.492188 117.578125 -213.546875 C 107.609375 -204.597656 100.300781 -194.390625 95.65625 -182.921875 C 91.019531 -171.453125 88.703125 -159.4375 88.703125 -146.875 C 88.703125 -134.445312 91.019531 -122.460938 95.65625 -110.921875 C 100.300781 -99.378906 107.609375 -89.132812 117.578125 -80.1875 C 127.546875 -71.25 140.519531 -64.148438 156.5 -58.890625 C 172.476562 -53.628906 191.734375 -51 214.265625 -51 Z M 214.265625 -51 "/></g></g><g transform="translate(1478.986282, 333.847987)"><g/></g></g><g fill="#ffffff" fill-opacity="1"><g transform="translate(1596.359021, 333.847987)"><g><path d="M 88.703125 -146.875 C 88.703125 -134.445312 91.019531 -122.460938 95.65625 -110.921875 C 100.300781 -99.378906 107.609375 -89.132812 117.578125 -80.1875 C 127.546875 -71.25 140.519531 -64.148438 156.5 -58.890625 C 172.476562 -53.628906 191.734375 -51 214.265625 -51 C 230.515625 -51 244.953125 -52.023438 257.578125 -54.078125 C 270.210938 -56.128906 279.878906 -58.859375 286.578125 -62.265625 L 286.578125 -116.140625 L 209.34375 -116.140625 L 209.34375 -173.296875 L 349.875 -173.296875 L 349.875 -26.625 C 341.8125 -19.53125 332.421875 -13.691406 321.703125 -9.109375 C 310.984375 -4.535156 299.507812 -0.988281 287.28125 1.53125 C 275.0625 4.0625 262.738281 5.800781 250.3125 6.75 C 237.882812 7.707031 225.867188 8.1875 214.265625 8.1875 C 187.628906 8.1875 163.796875 5.523438 142.765625 0.203125 C 121.742188 -5.117188 103.445312 -12.5625 87.875 -22.125 C 72.3125 -31.6875 59.375 -42.953125 49.0625 -55.921875 C 38.75 -68.890625 31.066406 -83.085938 26.015625 -98.515625 C 20.960938 -113.953125 18.4375 -130.070312 18.4375 -146.875 C 18.4375 -163.664062 20.960938 -179.773438 26.015625 -195.203125 C 31.066406 -210.640625 38.75 -224.84375 49.0625 -237.8125 C 59.375 -250.789062 72.3125 -262.054688 87.875 -271.609375 C 103.445312 -281.171875 121.742188 -288.613281 142.765625 -293.9375 C 163.796875 -299.269531 187.628906 -301.9375 214.265625 -301.9375 C 232.703125 -301.9375 249.054688 -300.738281 263.328125 -298.34375 C 277.597656 -295.957031 289.921875 -293.019531 300.296875 -289.53125 C 310.671875 -286.050781 319.203125 -282.535156 325.890625 -278.984375 C 332.585938 -275.441406 337.539062 -272.472656 340.75 -270.078125 C 343.957031 -267.691406 345.5625 -266.5 345.5625 -266.5 L 313 -218.765625 C 313 -218.765625 311.394531 -219.582031 308.1875 -221.21875 C 304.976562 -222.863281 300.398438 -224.878906 294.453125 -227.265625 C 288.515625 -229.660156 281.484375 -232.019531 273.359375 -234.34375 C 265.234375 -236.664062 256.1875 -238.644531 246.21875 -240.28125 C 236.25 -241.914062 225.597656 -242.734375 214.265625 -242.734375 C 191.734375 -242.734375 172.476562 -240.101562 156.5 -234.84375 C 140.519531 -229.59375 127.546875 -222.492188 117.578125 -213.546875 C 107.609375 -204.597656 100.300781 -194.390625 95.65625 -182.921875 C 91.019531 -171.453125 88.703125 -159.4375 88.703125 -146.875 Z M 88.703125 -146.875 "/></g></g></g><g fill="#ffffff" fill-opacity="1"><g transform="translate(1968.756575, 333.847987)"><g><path d="M 309.921875 0 L 278.796875 -57.5625 L 112.046875 -57.5625 L 80.90625 0 L 8.1875 0 L 167.359375 -293.75 L 223.484375 -293.75 L 382.640625 0 Z M 195.421875 -211.8125 L 142.984375 -114.71875 L 247.859375 -114.71875 Z M 195.421875 -211.8125 "/></g></g></g><g fill="#ffffff" fill-opacity="1"><g transform="translate(2359.58955, 333.847987)"><g><path d="M 114.09375 -293.75 L 215.28125 -90.953125 L 316.484375 -293.75 L 403.953125 -293.75 L 403.953125 0 L 335.734375 0 L 335.734375 -188.453125 L 241.71875 0 L 188.859375 0 L 94.84375 -188.453125 L 94.84375 0 L 26.625 0 L 26.625 -293.75 Z M 114.09375 -293.75 "/></g></g></g><g fill="#ffffff" fill-opacity="1"><g transform="translate(2790.161286, 333.847987)"><g><path d="M 94.84375 -176.984375 L 303.78125 -176.984375 L 303.78125 -119.828125 L 94.84375 -119.828125 L 94.84375 -59.203125 L 314.640625 -59.203125 L 314.640625 0 L 26.625 0 L 26.625 -293.75 L 312.59375 -293.75 L 312.59375 -234.546875 L 94.84375 -234.546875 Z M 94.84375 -176.984375 "/></g></g></g></g></g></g></g></g></g></svg>