<svg xmlns="http://www.w3.org/2000/svg" xmlns:xlink="http://www.w3.org/1999/xlink" width="4687" zoomAndPan="magnify" viewBox="0 0 3515.04 850.499997" height="1134" preserveAspectRatio="xMidYMid meet" version="1.0"><defs><clipPath id="9643b0ffe5"><path d="M 270.445312 112.992188 L 1059 112.992188 L 1059 722.84375 L 270.445312 722.84375 Z M 270.445312 112.992188 " clip-rule="nonzero"/></clipPath></defs><path fill="#ffffff" d="M 1238.929688 268.667969 L 1408.085938 268.667969 C 1448.863281 268.667969 1483.3125 275.191406 1511.574219 288.167969 C 1539.761719 301.144531 1560.894531 319.253906 1574.902344 342.425781 C 1588.898438 365.597656 1595.960938 392.121094 1595.960938 422.003906 C 1595.960938 451.253906 1588.648438 477.78125 1574.027344 501.523438 C 1559.40625 525.324219 1537.160156 544.128906 1507.234375 557.996094 C 1477.308594 571.859375 1440.246094 578.824219 1395.949219 578.824219 L 1238.929688 578.824219 Z M 1394.210938 500.003906 C 1421.660156 500.003906 1442.796875 492.976562 1457.535156 478.984375 C 1472.289062 464.929688 1479.664062 445.808594 1479.664062 421.5625 C 1479.664062 399.085938 1473.085938 381.167969 1459.957031 367.746094 C 1446.824219 354.324219 1426.929688 347.550781 1400.34375 347.550781 L 1347.425781 347.550781 L 1347.425781 500.003906 Z M 1394.210938 500.003906 " fill-opacity="1" fill-rule="nonzero"/><path fill="#ffffff" d="M 1849.214844 578.445312 C 1825.792969 572.242188 1804.65625 563.25 1785.886719 551.410156 L 1785.886719 477.84375 C 1800.078125 489.050781 1819.097656 498.292969 1842.953125 505.574219 C 1866.808594 512.792969 1889.863281 516.402344 1912.164062 516.402344 C 1922.574219 516.402344 1930.449219 515.007812 1935.773438 512.222656 C 1941.105469 509.4375 1943.773438 506.082031 1943.773438 502.21875 C 1943.773438 497.789062 1942.347656 494.117188 1939.433594 491.140625 C 1936.515625 488.164062 1930.878906 485.695312 1922.519531 483.605469 L 1870.46875 471.640625 C 1840.664062 464.550781 1819.527344 454.738281 1806.957031 442.136719 C 1794.375 429.601562 1788.113281 413.140625 1788.113281 392.757812 C 1788.113281 375.597656 1793.566406 360.722656 1804.605469 347.996094 C 1815.566406 335.273438 1831.179688 325.457031 1851.441406 318.558594 C 1871.710938 311.59375 1895.371094 308.113281 1922.574219 308.113281 C 1946.863281 308.113281 1969.109375 310.769531 1989.378906 316.089844 C 2009.640625 321.40625 2026.367188 328.179688 2039.691406 336.472656 L 2039.691406 406.050781 C 2026.054688 397.757812 2010.4375 391.238281 1992.597656 386.296875 C 1974.8125 381.425781 1956.539062 379.019531 1937.695312 379.019531 C 1910.492188 379.019531 1896.925781 383.765625 1896.925781 393.199219 C 1896.925781 397.632812 1899.03125 400.921875 1903.246094 403.140625 C 1907.457031 405.355469 1915.199219 407.632812 1926.417969 410.039062 L 1969.789062 418.015625 C 1998.117188 423.019531 2019.238281 431.820312 2033.117188 444.355469 C 2047.003906 456.890625 2053.9375 475.441406 2053.9375 500.003906 C 2053.9375 526.910156 2042.480469 548.246094 2019.488281 564.074219 C 1996.496094 579.902344 1963.902344 587.8125 1921.644531 587.8125 C 1896.796875 587.75 1872.640625 584.648438 1849.214844 578.445312 Z M 1849.214844 578.445312 " fill-opacity="1" fill-rule="nonzero"/><path fill="#ffffff" d="M 2156.316406 569.136719 C 2131.476562 556.726562 2112.695312 539.886719 2100.179688 518.613281 C 2087.664062 497.34375 2081.347656 473.410156 2081.347656 446.820312 C 2081.347656 420.230469 2087.847656 396.425781 2100.859375 375.472656 C 2113.875 354.515625 2132.957031 338.054688 2158.117188 326.089844 C 2183.269531 314.125 2213.324219 308.171875 2248.335938 308.171875 C 2291.707031 308.171875 2327.710938 317.480469 2356.339844 336.089844 L 2356.339844 417.191406 C 2346.242188 410.101562 2334.460938 404.339844 2321.015625 399.910156 C 2307.570312 395.476562 2293.195312 393.261719 2277.828125 393.261719 C 2250.9375 393.261719 2229.933594 398.261719 2214.75 408.328125 C 2199.566406 418.394531 2191.953125 431.5 2191.953125 447.769531 C 2191.953125 463.722656 2199.316406 476.765625 2214.070312 487.023438 C 2228.820312 497.214844 2250.191406 502.34375 2278.261719 502.34375 C 2292.699219 502.34375 2306.953125 500.191406 2321.015625 495.949219 C 2335.019531 491.644531 2347.105469 486.390625 2357.203125 480.183594 L 2357.203125 558.625 C 2325.421875 578.125 2288.550781 587.875 2246.597656 587.875 C 2211.28125 587.746094 2181.164062 581.542969 2156.316406 569.136719 Z M 2156.316406 569.136719 " fill-opacity="1" fill-rule="nonzero"/><path fill="#ffffff" d="M 2464.527344 569.136719 C 2439.492188 556.730469 2420.410156 539.761719 2407.269531 518.171875 C 2394.136719 496.585938 2387.503906 472.527344 2387.503906 445.9375 C 2387.503906 419.347656 2394.070312 395.605469 2407.269531 374.777344 C 2420.464844 353.949219 2439.429688 337.613281 2464.34375 325.773438 C 2489.179688 313.9375 2518.867188 308.046875 2553.253906 308.046875 C 2587.648438 308.046875 2617.324219 313.9375 2642.175781 325.773438 C 2667.023438 337.613281 2685.988281 353.820312 2699 374.523438 C 2712.011719 395.226562 2718.515625 418.96875 2718.515625 445.875 C 2718.515625 472.464844 2712.011719 496.523438 2699 518.109375 C 2685.988281 539.699219 2666.957031 556.664062 2641.925781 569.074219 C 2616.894531 581.484375 2587.335938 587.6875 2553.199219 587.6875 C 2519.050781 587.6875 2489.496094 581.546875 2464.527344 569.136719 Z M 2596.320312 490.507812 C 2606.859375 479.746094 2612.183594 465.5 2612.183594 447.773438 C 2612.183594 430.046875 2606.914062 415.929688 2596.320312 405.480469 C 2585.792969 394.972656 2571.40625 389.71875 2553.199219 389.71875 C 2534.667969 389.71875 2520.164062 394.972656 2509.570312 405.480469 C 2499.039062 415.992188 2493.769531 430.046875 2493.769531 447.773438 C 2493.769531 465.5 2499.039062 479.746094 2509.570312 490.507812 C 2520.109375 501.269531 2534.667969 506.714844 2553.199219 506.714844 C 2571.40625 506.652344 2585.792969 501.269531 2596.320312 490.507812 Z M 2596.320312 490.507812 " fill-opacity="1" fill-rule="nonzero"/><path fill="#ffffff" d="M 2979.132812 324.507812 L 2979.132812 420.230469 C 2968.109375 412.824219 2953.851562 409.152344 2936.195312 409.152344 C 2913.074219 409.152344 2895.234375 416.308594 2882.835938 430.613281 C 2870.386719 444.921875 2864.1875 467.207031 2864.1875 497.34375 L 2864.1875 578.886719 L 2757.921875 578.886719 L 2757.921875 319.632812 L 2862.027344 319.632812 L 2862.027344 402.0625 C 2867.78125 371.925781 2877.144531 349.707031 2890.027344 335.332031 C 2902.859375 321.027344 2919.457031 313.871094 2939.664062 313.871094 C 2954.964844 313.871094 2968.109375 317.417969 2979.132812 324.507812 Z M 2979.132812 324.507812 " fill-opacity="1" fill-rule="nonzero"/><path fill="#ffffff" d="M 3332.207031 259.804688 L 3332.207031 578.886719 L 3225.929688 578.886719 L 3225.929688 520.832031 C 3216.945312 542.675781 3203.316406 559.324219 3184.980469 570.71875 C 3166.632812 582.054688 3143.953125 587.75 3117.0625 587.75 C 3093.023438 587.75 3072.082031 581.800781 3054.167969 569.835938 C 3036.261719 557.867188 3022.449219 541.472656 3012.71875 520.644531 C 3003.054688 499.8125 2998.152344 476.261719 2998.152344 449.925781 C 2997.847656 422.765625 3002.988281 398.390625 3013.582031 376.804688 C 3024.125 355.214844 3039.046875 338.375 3058.261719 326.28125 C 3077.472656 314.191406 3099.40625 308.113281 3124.007812 308.113281 C 3174.632812 308.113281 3208.585938 330.585938 3225.929688 375.472656 L 3225.929688 259.804688 Z M 3210.078125 488.734375 C 3220.917969 477.972656 3226.308594 463.980469 3226.308594 446.886719 C 3226.308594 430.363281 3221.039062 416.878906 3210.507812 406.558594 C 3199.96875 396.238281 3185.53125 391.046875 3167.375 391.046875 C 3149.472656 391.046875 3135.160156 396.300781 3124.4375 406.8125 C 3113.714844 417.320312 3108.390625 430.933594 3108.390625 447.773438 C 3108.390625 464.613281 3113.714844 478.351562 3124.4375 488.988281 C 3135.160156 499.625 3149.289062 504.941406 3166.945312 504.941406 C 3184.847656 504.878906 3199.222656 499.496094 3210.078125 488.734375 Z M 3210.078125 488.734375 " fill-opacity="1" fill-rule="nonzero"/><path fill="#ffffff" d="M 1685.507812 347.234375 C 1714.765625 347.234375 1738.492188 325.464844 1738.492188 298.613281 C 1738.492188 271.757812 1714.765625 249.992188 1685.507812 249.992188 C 1656.242188 249.992188 1632.527344 271.757812 1632.527344 298.613281 C 1632.527344 325.464844 1656.242188 347.234375 1685.507812 347.234375 Z M 1685.507812 347.234375 " fill-opacity="1" fill-rule="nonzero"/><path fill="#ffffff" d="M 1632.484375 380.726562 C 1664.945312 395.035156 1705.226562 395.667969 1738.4375 380.726562 L 1738.4375 580.277344 L 1632.484375 580.277344 Z M 1632.484375 380.726562 " fill-opacity="1" fill-rule="nonzero"/><g clip-path="url(#9643b0ffe5)"><path fill="#5865f2" d="M 937.800781 164.066406 C 886.804688 140.207031 832.273438 122.867188 775.269531 112.992188 C 768.265625 125.648438 760.085938 142.675781 754.449219 156.21875 C 693.847656 147.105469 633.804688 147.105469 574.316406 156.21875 C 568.679688 142.675781 560.3125 125.648438 553.25 112.992188 C 496.179688 122.867188 441.589844 140.269531 390.59375 164.191406 C 287.730469 319.628906 259.847656 471.203125 273.789062 620.628906 C 342.011719 671.574219 408.128906 702.523438 473.128906 722.777344 C 489.179688 700.6875 503.492188 677.207031 515.824219 652.460938 C 492.339844 643.539062 469.84375 632.527344 448.59375 619.742188 C 454.230469 615.566406 459.746094 611.199219 465.074219 606.703125 C 594.703125 667.335938 735.546875 667.335938 863.628906 606.703125 C 869.019531 611.199219 874.535156 615.566406 880.109375 619.742188 C 858.796875 632.589844 836.242188 643.601562 812.757812 652.527344 C 825.085938 677.207031 839.339844 700.75 855.449219 722.839844 C 920.511719 702.585938 986.691406 671.636719 1054.914062 620.628906 C 1071.273438 447.40625 1026.96875 297.226562 937.800781 164.066406 Z M 533.484375 528.734375 C 494.570312 528.734375 462.65625 492.40625 462.65625 448.167969 C 462.65625 403.929688 493.886719 367.539062 533.484375 367.539062 C 573.078125 367.539062 604.988281 403.863281 604.308594 448.167969 C 604.371094 492.40625 573.078125 528.734375 533.484375 528.734375 Z M 795.21875 528.734375 C 756.308594 528.734375 724.394531 492.40625 724.394531 448.167969 C 724.394531 403.929688 755.625 367.539062 795.21875 367.539062 C 834.816406 367.539062 866.726562 403.863281 866.046875 448.167969 C 866.046875 492.40625 834.816406 528.734375 795.21875 528.734375 Z M 795.21875 528.734375 " fill-opacity="1" fill-rule="nonzero"/></g></svg>