<svg xmlns="http://www.w3.org/2000/svg" xmlns:xlink="http://www.w3.org/1999/xlink" width="4687" zoomAndPan="magnify" viewBox="0 0 3515.25 850.499975" height="1134" preserveAspectRatio="xMidYMid meet" version="1.0"><defs><g/><clipPath id="04be6525bd"><path d="M 2.148438 0 L 734.527344 0 L 734.527344 850 L 2.148438 850 Z M 2.148438 0 " clip-rule="nonzero"/></clipPath><clipPath id="44e70abc3e"><path d="M 891 143 L 3024.277344 143 L 3024.277344 744 L 891 744 Z M 891 143 " clip-rule="nonzero"/></clipPath><clipPath id="0551258c1c"><rect x="0" width="2134" y="0" height="601"/></clipPath><clipPath id="fc1f57f438"><rect x="0" width="3025" y="0" height="850"/></clipPath></defs><g transform="matrix(1, 0, 0, 1, 279, 0)"><g clip-path="url(#fc1f57f438)"><g clip-path="url(#04be6525bd)"><path fill="#ffffff" d="M 667.902344 0.121094 L 68.644531 0.121094 C 20.074219 0.121094 2.148438 18.046875 2.148438 66.640625 L 2.148438 653.007812 C 2.148438 658.507812 2.371094 663.617188 2.855469 668.347656 C 3.960938 678.957031 4.171875 689.234375 14.035156 700.9375 C 15 702.082031 25.070312 709.578125 25.070312 709.578125 C 30.488281 712.234375 34.1875 714.191406 40.296875 716.652344 L 335.378906 840.28125 C 350.699219 847.300781 357.101562 850.039062 368.230469 849.820312 C 368.246094 849.820312 368.257812 849.820312 368.273438 849.820312 C 368.289062 849.820312 368.300781 849.820312 368.316406 849.820312 C 379.441406 850.039062 385.847656 847.300781 401.167969 840.28125 L 696.25 716.652344 C 702.359375 714.191406 706.058594 712.234375 711.476562 709.578125 C 711.476562 709.578125 721.550781 702.082031 722.511719 700.9375 C 732.375 689.234375 732.585938 678.957031 733.691406 668.347656 C 734.175781 663.617188 734.398438 658.507812 734.398438 653.007812 L 734.398438 66.640625 C 734.398438 18.046875 716.472656 0.121094 667.902344 0.121094 " fill-opacity="1" fill-rule="evenodd"/></g><path fill="#000000" d="M 627.765625 589.636719 L 627.628906 590.992188 L 627.496094 592.476562 L 627.222656 593.828125 L 626.816406 595.179688 L 626.554688 596.398438 L 626.148438 597.753906 L 625.609375 598.96875 L 625.066406 600.054688 L 624.535156 601.269531 L 623.183594 603.433594 L 622.378906 604.515625 L 621.699219 605.597656 L 620.898438 606.542969 L 619.949219 607.492188 L 619.148438 608.300781 L 618.066406 609.25 L 617.125 610.0625 L 616.046875 610.871094 L 614.972656 611.539062 L 613.898438 612.351562 L 612.679688 613.027344 L 611.46875 613.570312 L 610.261719 614.246094 L 608.90625 614.785156 L 607.5625 615.328125 L 606.21875 615.730469 L 604.875 616.140625 L 603.65625 616.542969 L 602.3125 616.816406 L 601.105469 617.085938 L 599.894531 617.355469 L 598.542969 617.625 L 597.195312 617.761719 L 595.988281 617.898438 L 594.632812 618.03125 L 593.15625 618.167969 L 591.8125 618.304688 L 586.15625 618.304688 L 584.808594 618.167969 L 583.332031 618.167969 L 581.984375 618.03125 L 580.632812 617.898438 L 579.152344 617.761719 L 577.808594 617.492188 L 576.464844 617.355469 L 575.113281 617.085938 L 573.765625 616.816406 L 572.421875 616.542969 L 571.078125 616.273438 L 569.726562 615.871094 L 568.515625 615.597656 L 567.171875 615.191406 L 565.824219 614.785156 L 564.609375 614.246094 L 563.265625 613.839844 L 562.054688 613.433594 L 560.710938 612.894531 L 559.496094 612.351562 L 558.285156 611.808594 L 557.074219 611.144531 L 555.859375 610.601562 L 554.648438 609.925781 L 553.574219 609.25 L 552.355469 608.570312 L 551.28125 607.894531 L 550.199219 607.21875 L 549.128906 606.410156 L 548.054688 605.597656 L 546.972656 604.785156 L 545.894531 603.972656 L 544.949219 603.164062 L 543.875 602.214844 L 544.6875 601.132812 L 545.625 600.1875 L 546.4375 599.105469 L 547.378906 598.023438 L 548.1875 597.078125 L 548.992188 595.996094 L 549.9375 594.910156 L 550.742188 593.964844 L 551.6875 592.882812 L 552.492188 591.9375 L 553.4375 590.855469 L 554.242188 589.773438 L 555.054688 588.824219 L 555.992188 587.742188 L 556.804688 586.660156 L 557.742188 585.714844 L 558.554688 584.632812 L 559.628906 585.445312 L 560.839844 586.257812 L 561.921875 587.066406 L 563.128906 587.878906 L 564.210938 588.554688 L 565.421875 589.367188 L 566.496094 590.042969 L 567.714844 590.582031 L 568.785156 591.261719 L 569.996094 591.800781 L 571.214844 592.34375 L 572.421875 592.882812 L 573.632812 593.289062 L 574.847656 593.828125 L 576.191406 594.234375 L 577.539062 594.640625 L 578.746094 595.046875 L 580.101562 595.320312 L 582.789062 595.859375 L 584.269531 595.996094 L 585.621094 596.265625 L 586.964844 596.265625 L 588.445312 596.398438 L 591.40625 596.398438 L 592.882812 596.265625 L 594.238281 595.996094 L 595.445312 595.722656 L 596.65625 595.453125 L 597.738281 595.046875 L 598.679688 594.507812 L 599.757812 593.695312 L 600.5625 592.75 L 601.105469 591.664062 L 601.511719 590.449219 L 601.644531 589.097656 L 601.644531 588.824219 L 601.511719 587.203125 L 600.96875 585.847656 L 600.292969 584.902344 L 599.355469 584.089844 L 598.269531 583.28125 L 597.195312 582.738281 L 595.988281 582.199219 L 594.632812 581.65625 L 593.019531 580.980469 L 592.082031 580.710938 L 591.007812 580.441406 L 589.789062 580.035156 L 588.582031 579.761719 L 587.238281 579.359375 L 585.882812 579.085938 L 584.40625 578.683594 L 583.058594 578.410156 L 581.578125 578.003906 L 580.234375 577.734375 L 578.882812 577.328125 L 577.539062 577.058594 L 576.191406 576.652344 L 574.976562 576.25 L 573.632812 575.976562 L 572.421875 575.570312 L 571.214844 575.164062 L 569.996094 574.757812 L 568.515625 574.21875 L 567.171875 573.675781 L 565.824219 573.136719 L 564.472656 572.59375 L 563.265625 571.917969 L 561.921875 571.242188 L 560.839844 570.566406 L 559.628906 569.890625 L 558.554688 569.078125 L 557.472656 568.402344 L 556.535156 567.589844 L 555.589844 566.644531 L 554.648438 565.695312 L 553.835938 564.75 L 553.035156 563.804688 L 552.355469 562.859375 L 551.6875 561.773438 L 551.011719 560.558594 L 550.472656 559.621094 L 550.066406 558.535156 L 549.667969 557.320312 L 549.261719 556.238281 L 548.992188 554.882812 L 548.722656 553.667969 L 548.585938 552.316406 L 548.449219 550.960938 L 548.316406 549.476562 L 548.316406 546.363281 L 548.449219 545.011719 L 548.585938 543.792969 L 548.722656 542.441406 L 548.992188 541.226562 L 549.261719 540.007812 L 549.667969 538.789062 L 549.9375 537.574219 L 550.472656 536.355469 L 551.011719 535.136719 L 551.554688 533.921875 L 552.222656 532.703125 L 552.898438 531.488281 L 553.699219 530.402344 L 554.515625 529.324219 L 555.453125 528.242188 L 556.398438 527.292969 L 557.339844 526.210938 L 558.421875 525.265625 L 559.359375 524.589844 L 560.441406 523.777344 L 561.515625 522.964844 L 562.589844 522.289062 L 563.804688 521.613281 L 565.015625 521.070312 L 566.222656 520.394531 L 567.441406 519.855469 L 568.785156 519.449219 L 570.128906 518.910156 L 571.347656 518.503906 L 572.421875 518.230469 L 573.632812 517.960938 L 574.847656 517.691406 L 576.191406 517.421875 L 577.402344 517.148438 L 578.746094 517.015625 L 580.101562 516.878906 L 581.445312 516.742188 L 582.789062 516.609375 L 588.582031 516.609375 L 590.0625 516.742188 L 591.539062 516.878906 L 592.882812 516.878906 L 594.371094 517.015625 L 595.714844 517.285156 L 597.195312 517.421875 L 598.542969 517.691406 L 599.757812 517.960938 L 601.105469 518.230469 L 602.449219 518.503906 L 603.65625 518.773438 L 605.007812 519.179688 L 606.21875 519.585938 L 607.429688 519.855469 L 608.78125 520.394531 L 609.992188 520.800781 L 611.199219 521.339844 L 612.410156 521.882812 L 613.761719 522.425781 L 614.972656 523.101562 L 616.046875 523.640625 L 617.261719 524.316406 L 618.472656 524.992188 L 619.546875 525.671875 L 620.761719 526.484375 L 621.839844 527.15625 L 622.921875 527.96875 L 623.996094 528.78125 L 625.066406 529.59375 L 624.265625 530.675781 L 623.589844 531.757812 L 622.785156 532.839844 L 621.972656 533.921875 L 621.171875 535.136719 L 620.492188 536.21875 L 619.679688 537.304688 L 618.875 538.382812 L 618.203125 539.464844 L 617.398438 540.550781 L 616.585938 541.632812 L 615.910156 542.714844 L 615.105469 543.929688 L 614.292969 545.011719 L 613.492188 546.09375 L 612.816406 547.175781 L 612.011719 548.257812 L 610.929688 547.445312 L 609.722656 546.769531 L 608.644531 546.09375 L 607.5625 545.28125 L 606.355469 544.742188 L 605.273438 544.066406 L 604.0625 543.523438 L 602.988281 542.984375 L 601.773438 542.441406 L 600.699219 541.902344 L 599.488281 541.496094 L 598.40625 540.953125 L 596.925781 540.550781 L 595.582031 540.140625 L 594.238281 539.738281 L 592.882812 539.464844 L 590.195312 538.925781 L 588.851562 538.789062 L 587.5 538.65625 L 586.289062 538.519531 L 583.332031 538.519531 L 581.851562 538.789062 L 580.496094 539.058594 L 579.289062 539.332031 L 578.214844 539.871094 L 577.265625 540.414062 L 576.058594 541.496094 L 575.246094 542.714844 L 574.714844 543.929688 L 574.578125 545.28125 L 574.578125 545.554688 L 574.714844 547.3125 L 575.382812 548.796875 L 575.921875 549.609375 L 576.863281 550.558594 L 578.078125 551.234375 L 579.152344 551.910156 L 580.496094 552.449219 L 581.984375 552.992188 L 583.601562 553.53125 L 584.675781 553.804688 L 585.75 554.207031 L 586.964844 554.480469 L 588.175781 554.882812 L 589.519531 555.15625 L 591.007812 555.5625 L 592.488281 555.964844 L 593.96875 556.375 L 595.445312 556.644531 L 596.789062 557.050781 L 598.269531 557.457031 L 599.625 557.726562 L 600.96875 558.132812 L 602.3125 558.535156 L 603.523438 558.941406 L 604.875 559.347656 L 606.085938 559.753906 L 607.292969 560.160156 L 608.78125 560.691406 L 610.125 561.371094 L 611.46875 561.910156 L 612.816406 562.585938 L 614.03125 563.261719 L 615.242188 563.9375 L 616.316406 564.613281 L 617.398438 565.425781 L 618.472656 566.101562 L 619.546875 567.050781 L 620.628906 567.996094 L 621.566406 569.078125 L 622.511719 570.023438 L 623.316406 571.109375 L 624.128906 572.324219 L 624.796875 573.40625 L 625.472656 574.625 L 626.015625 575.707031 L 626.421875 576.921875 L 626.816406 578.140625 L 627.089844 579.359375 L 627.628906 582.0625 L 627.765625 583.414062 L 627.898438 584.902344 L 627.898438 588.148438 Z M 533.332031 616.679688 L 456.175781 616.679688 L 456.175781 518.230469 L 534.003906 518.230469 L 534.003906 540.550781 L 481.890625 540.550781 L 481.890625 556.644531 L 528.75 556.644531 L 528.75 577.601562 L 481.890625 577.601562 L 481.890625 594.371094 L 534.679688 594.371094 L 534.679688 616.679688 Z M 434.949219 616.679688 L 410.308594 616.679688 L 410.308594 558.464844 L 409.632812 559.546875 L 408.832031 560.773438 L 408.152344 561.855469 L 407.351562 562.9375 L 406.675781 564.152344 L 405.863281 565.238281 L 405.195312 566.320312 L 404.515625 567.542969 L 403.714844 568.625 L 403.039062 569.707031 L 402.226562 570.789062 L 401.558594 572.015625 L 400.746094 573.097656 L 400.078125 574.179688 L 399.402344 575.394531 L 398.589844 576.484375 L 397.921875 577.566406 L 397.109375 578.785156 L 396.441406 579.867188 L 395.632812 580.949219 L 394.964844 582.175781 L 394.285156 583.257812 L 393.476562 584.339844 L 392.808594 585.554688 L 391.996094 586.644531 L 391.328125 587.726562 L 390.515625 588.8125 L 389.839844 590.027344 L 389.171875 591.117188 L 388.359375 592.199219 L 387.691406 593.417969 L 386.878906 594.5 L 386.203125 595.578125 L 385.398438 596.804688 L 384.722656 597.886719 L 384.191406 597.886719 L 383.378906 596.671875 L 382.703125 595.578125 L 381.898438 594.363281 L 381.222656 593.28125 L 380.417969 592.066406 L 379.742188 590.972656 L 378.941406 589.757812 L 378.261719 588.671875 L 377.449219 587.457031 L 376.78125 586.375 L 375.972656 585.148438 L 375.304688 584.066406 L 374.492188 582.851562 L 373.816406 581.769531 L 373.011719 580.542969 L 372.335938 579.460938 L 371.53125 578.242188 L 370.722656 577.164062 L 370.046875 575.9375 L 369.242188 574.855469 L 368.566406 573.636719 L 367.761719 572.554688 L 367.085938 571.332031 L 366.28125 570.25 L 365.605469 569.03125 L 364.792969 567.949219 L 364.125 566.730469 L 363.3125 565.640625 L 362.644531 564.425781 L 361.832031 563.34375 L 361.15625 562.125 L 360.355469 561.042969 L 359.675781 559.816406 L 358.875 558.734375 L 358.875 616.679688 L 333.289062 616.679688 L 333.289062 518.230469 L 360.894531 518.230469 L 361.5625 519.3125 L 362.238281 520.53125 L 363.042969 521.605469 L 363.71875 522.820312 L 364.394531 523.902344 L 365.0625 525.121094 L 365.738281 526.195312 L 366.546875 527.414062 L 367.21875 528.496094 L 367.898438 529.578125 L 368.566406 530.785156 L 369.242188 531.867188 L 370.046875 533.085938 L 370.722656 534.167969 L 371.398438 535.375 L 372.066406 536.457031 L 372.875 537.539062 L 373.554688 538.75 L 374.222656 539.832031 L 374.898438 541.050781 L 375.566406 542.132812 L 376.378906 543.339844 L 377.054688 544.421875 L 377.722656 545.640625 L 378.398438 546.714844 L 379.066406 547.796875 L 379.878906 549.011719 L 380.554688 550.097656 L 381.222656 551.3125 L 381.898438 552.386719 L 382.566406 553.605469 L 383.378906 554.6875 L 384.054688 555.894531 L 384.722656 556.976562 L 385.398438 555.894531 L 386.074219 554.6875 L 386.878906 553.605469 L 387.554688 552.386719 L 388.222656 551.3125 L 388.898438 550.097656 L 389.703125 549.011719 L 390.378906 547.796875 L 391.058594 546.714844 L 391.722656 545.640625 L 392.535156 544.421875 L 393.203125 543.339844 L 393.882812 542.132812 L 394.554688 541.050781 L 395.359375 539.832031 L 396.035156 538.75 L 396.714844 537.539062 L 397.378906 536.457031 L 398.058594 535.375 L 398.863281 534.167969 L 399.539062 533.085938 L 400.214844 531.867188 L 400.882812 530.785156 L 401.691406 529.578125 L 402.363281 528.496094 L 403.039062 527.414062 L 403.714844 526.195312 L 404.515625 525.121094 L 405.195312 523.902344 L 405.863281 522.820312 L 406.539062 521.605469 L 407.351562 520.53125 L 408.019531 519.3125 L 408.695312 518.230469 L 436.292969 518.230469 L 436.292969 616.679688 Z M 278.71875 576.113281 L 278.3125 574.886719 L 277.777344 573.535156 L 277.238281 572.316406 L 276.832031 571.089844 L 276.300781 569.875 L 275.757812 568.519531 L 275.351562 567.296875 L 274.808594 566.078125 L 274.277344 564.863281 L 273.871094 563.636719 L 273.328125 562.285156 L 272.933594 561.066406 L 272.390625 559.84375 L 271.851562 558.625 L 271.445312 557.40625 L 270.910156 556.046875 L 270.371094 554.828125 L 269.964844 553.613281 L 269.425781 552.386719 L 268.890625 551.035156 L 268.484375 549.808594 L 267.945312 548.59375 L 267.410156 549.808594 L 267.007812 551.035156 L 266.464844 552.386719 L 265.925781 553.613281 L 265.527344 554.828125 L 264.984375 556.046875 L 264.445312 557.40625 L 263.910156 558.625 L 263.503906 559.84375 L 262.964844 561.066406 L 262.421875 562.285156 L 262.023438 563.636719 L 261.484375 564.863281 L 260.941406 566.078125 L 260.539062 567.296875 L 260.003906 568.519531 L 259.460938 569.875 L 258.921875 571.089844 L 258.527344 572.316406 L 257.984375 573.535156 L 257.441406 574.886719 L 257.035156 576.113281 L 256.503906 577.328125 L 279.257812 577.328125 Z M 321.003906 616.679688 L 294.605469 616.679688 L 294.070312 615.460938 L 293.667969 614.246094 L 293.125 613.027344 L 292.585938 611.675781 L 292.1875 610.464844 L 291.644531 609.25 L 291.105469 608.03125 L 290.707031 606.816406 L 290.167969 605.597656 L 289.625 604.378906 L 289.21875 603.164062 L 288.6875 601.808594 L 288.144531 600.59375 L 287.738281 599.375 L 287.199219 598.15625 L 248.554688 598.15625 L 248.023438 599.375 L 247.617188 600.59375 L 247.074219 601.808594 L 246.535156 603.164062 L 246.136719 604.378906 L 245.597656 605.597656 L 245.054688 606.816406 L 244.648438 608.03125 L 244.117188 609.25 L 243.574219 610.464844 L 243.167969 611.675781 L 242.636719 613.027344 L 242.09375 614.246094 L 241.6875 615.460938 L 241.148438 616.679688 L 213.953125 616.679688 L 214.488281 615.460938 L 215.027344 614.246094 L 215.570312 613.027344 L 216.101562 611.675781 L 216.507812 610.464844 L 217.050781 609.25 L 217.589844 608.03125 L 218.125 606.816406 L 218.664062 605.597656 L 219.207031 604.242188 L 219.738281 603.027344 L 220.28125 601.808594 L 220.683594 600.59375 L 221.226562 599.375 L 221.757812 598.15625 L 222.300781 596.804688 L 222.839844 595.589844 L 223.375 594.371094 L 223.917969 593.152344 L 224.457031 591.9375 L 224.863281 590.71875 L 225.394531 589.367188 L 225.9375 588.148438 L 226.476562 586.933594 L 227.011719 585.714844 L 227.550781 584.496094 L 228.09375 583.28125 L 228.625 581.925781 L 229.03125 580.710938 L 229.574219 579.492188 L 230.113281 578.277344 L 230.648438 577.058594 L 231.1875 575.839844 L 231.726562 574.488281 L 232.261719 573.273438 L 232.800781 572.054688 L 233.207031 570.835938 L 233.75 569.621094 L 234.28125 568.402344 L 234.824219 567.050781 L 235.367188 565.832031 L 235.898438 564.613281 L 236.4375 563.398438 L 236.980469 562.183594 L 237.386719 560.960938 L 237.917969 559.753906 L 238.460938 558.402344 L 239 557.183594 L 239.535156 555.964844 L 240.074219 554.75 L 240.617188 553.53125 L 241.148438 552.316406 L 241.554688 550.960938 L 242.097656 549.746094 L 242.636719 548.527344 L 243.171875 547.3125 L 244.25 544.875 L 244.785156 543.523438 L 245.324219 542.308594 L 245.730469 541.089844 L 246.273438 539.871094 L 246.804688 538.65625 L 247.347656 537.4375 L 247.886719 536.085938 L 248.421875 534.867188 L 248.960938 533.652344 L 249.503906 532.433594 L 249.898438 531.21875 L 250.441406 530 L 250.984375 528.644531 L 251.523438 527.429688 L 252.058594 526.210938 L 252.597656 524.992188 L 253.140625 523.777344 L 253.671875 522.5625 L 254.078125 521.207031 L 254.617188 519.988281 L 255.160156 518.773438 L 255.691406 517.554688 L 280.605469 517.554688 L 281.144531 518.773438 L 281.683594 519.988281 L 282.21875 521.207031 L 282.757812 522.5625 L 283.164062 523.777344 L 283.699219 524.992188 L 284.238281 526.210938 L 284.78125 527.429688 L 285.320312 528.644531 L 285.855469 530 L 286.394531 531.21875 L 286.9375 532.433594 L 287.332031 533.652344 L 287.875 534.867188 L 288.417969 536.085938 L 288.957031 537.4375 L 289.492188 538.65625 L 290.03125 539.871094 L 290.574219 541.089844 L 291.105469 542.308594 L 291.511719 543.523438 L 292.050781 544.875 L 292.585938 546.09375 L 293.125 547.3125 L 293.667969 548.527344 L 294.207031 549.746094 L 294.742188 550.960938 L 295.28125 552.316406 L 295.6875 553.53125 L 296.222656 554.75 L 296.761719 555.964844 L 297.300781 557.183594 L 297.84375 558.402344 L 298.375 559.753906 L 298.917969 560.960938 L 299.457031 562.183594 L 299.855469 563.398438 L 300.398438 564.613281 L 300.9375 565.832031 L 301.472656 567.050781 L 302.011719 568.402344 L 302.554688 569.621094 L 303.09375 570.835938 L 303.628906 572.054688 L 304.035156 573.273438 L 304.574219 574.488281 L 305.109375 575.839844 L 305.648438 577.058594 L 306.191406 578.277344 L 306.730469 579.492188 L 307.265625 580.710938 L 307.804688 581.925781 L 308.210938 583.28125 L 308.742188 584.496094 L 309.285156 585.714844 L 309.824219 586.933594 L 310.359375 588.148438 L 310.898438 589.367188 L 311.441406 590.71875 L 311.984375 591.9375 L 312.378906 593.152344 L 312.921875 594.371094 L 313.460938 595.589844 L 313.996094 596.804688 L 314.535156 598.15625 L 315.078125 599.375 L 315.617188 600.59375 L 316.148438 601.808594 L 316.558594 603.027344 L 317.097656 604.242188 L 317.632812 605.597656 L 318.171875 606.816406 L 318.710938 608.03125 L 319.246094 609.25 L 319.785156 610.464844 L 320.328125 611.675781 L 320.734375 613.027344 L 321.265625 614.246094 L 321.808594 615.460938 L 322.347656 616.679688 Z M 203.039062 604.109375 L 201.957031 604.917969 L 201.019531 605.597656 L 199.9375 606.410156 L 198.863281 607.085938 L 197.789062 607.894531 L 196.707031 608.570312 L 195.632812 609.25 L 194.414062 609.925781 L 193.207031 610.601562 L 191.996094 611.277344 L 190.78125 611.808594 L 189.570312 612.488281 L 188.226562 613.027344 L 187.015625 613.570312 L 185.664062 614.109375 L 184.457031 614.648438 L 182.027344 615.460938 L 180.816406 615.871094 L 179.472656 616.273438 L 178.265625 616.679688 L 176.910156 616.949219 L 175.703125 617.222656 L 174.359375 617.492188 L 173.007812 617.761719 L 171.660156 617.898438 L 170.179688 618.03125 L 168.835938 618.167969 L 167.355469 618.304688 L 166.003906 618.4375 L 164.523438 618.574219 L 158.730469 618.574219 L 157.386719 618.4375 L 155.90625 618.304688 L 153.21875 618.03125 L 151.867188 617.898438 L 150.523438 617.625 L 149.175781 617.355469 L 147.96875 617.085938 L 146.617188 616.816406 L 145.40625 616.410156 L 144.0625 616.140625 L 142.84375 615.730469 L 141.632812 615.191406 L 140.425781 614.785156 L 139.082031 614.246094 L 137.863281 613.703125 L 136.65625 613.164062 L 135.445312 612.621094 L 134.226562 611.945312 L 133.15625 611.277344 L 131.945312 610.601562 L 130.863281 609.925781 L 129.789062 609.25 L 128.707031 608.4375 L 127.632812 607.625 L 126.558594 606.816406 L 125.609375 606.003906 L 124.671875 605.191406 L 123.726562 604.242188 L 122.785156 603.433594 L 121.839844 602.484375 L 120.902344 601.539062 L 120.089844 600.59375 L 119.285156 599.511719 L 118.472656 598.5625 L 117.796875 597.480469 L 116.992188 596.398438 L 116.320312 595.320312 L 115.648438 594.234375 L 114.972656 593.019531 L 114.296875 591.9375 L 113.765625 590.71875 L 113.222656 589.5 L 112.683594 588.285156 L 112.148438 587.066406 L 111.742188 585.988281 L 111.203125 584.765625 L 110.933594 583.550781 L 110.535156 582.335938 L 110.265625 580.980469 L 109.859375 579.761719 L 109.589844 578.410156 L 109.453125 577.195312 L 109.179688 575.839844 L 109.046875 574.625 L 108.910156 573.273438 L 108.785156 571.917969 L 108.648438 570.566406 L 108.648438 566.101562 L 108.785156 564.613281 L 108.785156 563.261719 L 108.910156 561.910156 L 109.046875 560.421875 L 109.316406 559.078125 L 109.453125 557.726562 L 109.722656 556.507812 L 110.128906 555.15625 L 110.398438 553.804688 L 110.796875 552.585938 L 111.203125 551.234375 L 111.609375 550.015625 L 112.148438 548.664062 L 112.683594 547.445312 L 113.222656 546.230469 L 113.765625 545.011719 L 114.296875 543.792969 L 114.972656 542.578125 L 115.648438 541.496094 L 116.992188 539.332031 L 117.671875 538.25 L 118.472656 537.167969 L 119.285156 536.085938 L 120.089844 535.003906 L 120.902344 534.054688 L 121.839844 533.109375 L 122.652344 532.160156 L 123.589844 531.21875 L 124.535156 530.269531 L 125.476562 529.457031 L 126.558594 528.511719 L 127.496094 527.699219 L 128.570312 526.886719 L 129.652344 526.210938 L 130.726562 525.398438 L 131.808594 524.722656 L 132.882812 524.046875 L 134.09375 523.371094 L 135.308594 522.695312 L 136.519531 522.019531 L 137.726562 521.476562 L 138.945312 520.9375 L 140.289062 520.261719 L 141.363281 519.855469 L 142.707031 519.449219 L 143.925781 518.910156 L 145.136719 518.636719 L 146.34375 518.230469 L 147.695312 517.960938 L 148.90625 517.554688 L 150.25 517.285156 L 151.597656 517.148438 L 152.949219 516.878906 L 154.292969 516.742188 L 155.636719 516.609375 L 156.980469 516.472656 L 158.335938 516.335938 L 164.117188 516.335938 L 165.605469 516.472656 L 167.085938 516.609375 L 168.429688 516.609375 L 169.773438 516.742188 L 171.253906 517.015625 L 172.472656 517.148438 L 173.816406 517.421875 L 175.160156 517.691406 L 176.378906 517.960938 L 177.585938 518.230469 L 178.796875 518.503906 L 180.015625 518.910156 L 181.222656 519.179688 L 182.296875 519.585938 L 183.515625 519.988281 L 184.726562 520.53125 L 185.933594 521.070312 L 187.152344 521.613281 L 188.359375 522.289062 L 189.570312 522.832031 L 190.652344 523.507812 L 191.859375 524.183594 L 192.933594 524.859375 L 194.152344 525.535156 L 195.226562 526.347656 L 196.300781 527.023438 L 197.382812 527.835938 L 198.457031 528.648438 L 199.539062 529.59375 L 200.613281 530.402344 L 199.800781 531.488281 L 198.863281 532.433594 L 198.050781 533.515625 L 197.113281 534.597656 L 196.300781 535.679688 L 195.496094 536.625 L 194.550781 537.707031 L 193.746094 538.789062 L 192.933594 539.738281 L 191.996094 540.820312 L 191.183594 541.902344 L 190.246094 542.984375 L 189.433594 543.929688 L 188.632812 545.011719 L 187.683594 546.09375 L 186.878906 547.175781 L 185.933594 548.121094 L 185.128906 549.203125 L 184.046875 548.394531 L 182.972656 547.445312 L 181.890625 546.769531 L 180.816406 545.957031 L 179.742188 545.28125 L 178.660156 544.605469 L 177.585938 543.929688 L 176.378906 543.253906 L 175.296875 542.714844 L 174.222656 542.171875 L 173.140625 541.765625 L 171.929688 541.359375 L 170.722656 540.953125 L 169.503906 540.683594 L 168.160156 540.414062 L 166.816406 540.140625 L 165.46875 540.007812 L 163.992188 539.871094 L 162.503906 539.738281 L 159.679688 539.738281 L 158.335938 539.871094 L 157.117188 540.007812 L 155.773438 540.277344 L 154.5625 540.550781 L 153.347656 540.953125 L 152.136719 541.359375 L 150.925781 541.902344 L 149.71875 542.441406 L 148.636719 543.117188 L 147.5625 543.792969 L 146.480469 544.472656 L 145.542969 545.28125 L 144.59375 546.09375 L 143.65625 546.90625 L 142.84375 547.851562 L 141.90625 548.796875 L 141.09375 549.878906 L 140.425781 550.828125 L 139.75 551.910156 L 139.082031 553.128906 L 138.40625 554.207031 L 137.863281 555.425781 L 137.457031 556.644531 L 136.925781 557.859375 L 136.519531 559.210938 L 136.25 560.558594 L 135.976562 561.773438 L 135.707031 563.261719 L 135.574219 564.613281 L 135.445312 565.96875 L 135.445312 569.078125 L 135.574219 570.429688 L 135.707031 571.648438 L 135.84375 573 L 136.382812 575.4375 L 136.65625 576.652344 L 137.058594 577.871094 L 137.457031 578.953125 L 138 580.304688 L 138.539062 581.523438 L 139.207031 582.738281 L 140.558594 584.902344 L 141.363281 585.988281 L 142.175781 586.933594 L 143.113281 587.878906 L 143.925781 588.824219 L 144.863281 589.636719 L 145.949219 590.449219 L 147.023438 591.261719 L 148.09375 591.9375 L 149.175781 592.613281 L 150.386719 593.152344 L 151.597656 593.695312 L 152.8125 594.234375 L 155.5 595.046875 L 156.855469 595.320312 L 158.199219 595.589844 L 159.542969 595.722656 L 161.023438 595.859375 L 164.117188 595.859375 L 165.605469 595.722656 L 167.085938 595.589844 L 168.429688 595.453125 L 169.773438 595.179688 L 171.128906 594.910156 L 172.472656 594.507812 L 173.679688 594.234375 L 174.890625 593.695312 L 175.972656 593.152344 L 177.183594 592.613281 L 178.128906 592.070312 L 179.203125 591.394531 L 179.203125 579.085938 L 159.542969 579.085938 L 159.542969 559.347656 L 203.976562 559.347656 L 203.976562 603.296875 Z M 203.039062 604.109375 " fill-opacity="1" fill-rule="nonzero"/><path fill="#000000" d="M 159.734375 295.476562 L 218.09375 295.476562 L 218.09375 250.335938 L 159.734375 250.335938 L 159.734375 158.179688 L 220.414062 158.179688 L 220.414062 113.039062 L 110.175781 113.039062 L 110.175781 438.828125 L 221.339844 438.828125 L 221.339844 393.6875 L 159.734375 393.6875 Z M 159.734375 295.476562 " fill-opacity="1" fill-rule="nonzero"/><path fill="#000000" d="M 577.738281 305.257812 L 577.738281 378.792969 C 577.738281 391.828125 571.714844 397.875 559.214844 397.875 L 549.945312 397.875 C 536.980469 397.875 530.953125 391.828125 530.953125 378.792969 L 530.953125 173.074219 C 530.953125 160.042969 536.980469 153.996094 549.945312 153.996094 L 558.285156 153.996094 C 570.789062 153.996094 576.8125 160.042969 576.8125 173.074219 L 576.8125 236.84375 L 625.441406 236.84375 L 625.441406 170.28125 C 625.441406 129.792969 605.988281 110.246094 565.699219 110.246094 L 541.609375 110.246094 C 501.320312 110.246094 481.394531 130.257812 481.394531 170.75 L 481.394531 381.117188 C 481.394531 421.613281 501.320312 441.621094 541.609375 441.621094 L 566.160156 441.621094 C 606.457031 441.621094 626.371094 421.613281 626.371094 381.117188 L 626.371094 305.257812 Z M 577.738281 305.257812 " fill-opacity="1" fill-rule="nonzero"/><path fill="#000000" d="M 405.640625 438.832031 L 455.207031 438.832031 L 455.207031 113.039062 L 405.640625 113.039062 Z M 405.640625 438.832031 " fill-opacity="1" fill-rule="nonzero"/><path fill="#000000" d="M 333.726562 257.78125 C 333.726562 270.816406 327.710938 276.871094 315.203125 276.871094 L 294.820312 276.871094 L 294.820312 156.789062 L 315.203125 156.789062 C 327.710938 156.789062 333.726562 162.835938 333.726562 175.867188 Z M 323.074219 113.039062 L 245.261719 113.039062 L 245.261719 438.832031 L 294.820312 438.832031 L 294.820312 320.609375 L 323.074219 320.609375 C 363.371094 320.609375 383.285156 300.601562 383.285156 260.113281 L 383.285156 173.542969 C 383.285156 133.050781 363.371094 113.039062 323.074219 113.039062 " fill-opacity="1" fill-rule="nonzero"/><path fill="#000000" d="M 227.089844 733.410156 L 510.792969 733.410156 L 365.988281 781.164062 Z M 227.089844 733.410156 " fill-opacity="1" fill-rule="evenodd"/><g clip-path="url(#44e70abc3e)"><g transform="matrix(1, 0, 0, 1, 891, 143)"><g clip-path="url(#0551258c1c)"><g fill="#ffffff" fill-opacity="1"><g transform="translate(1.619754, 450.626207)"><g><path d="M 89.90625 -242.734375 L 180.40625 -242.734375 L 180.40625 -182.796875 L 89.90625 -182.796875 L 89.90625 -59.9375 L 203.78125 -59.9375 L 203.78125 0 L 23.96875 0 L 23.96875 -419.546875 L 203.78125 -419.546875 L 203.78125 -359.609375 L 89.90625 -359.609375 Z M 89.90625 -242.734375 "/></g></g></g><g fill="#ffffff" fill-opacity="1"><g transform="translate(222.177155, 450.626207)"><g><path d="M 121.0625 -419.546875 C 154.226562 -419.546875 178.898438 -410.753906 195.078125 -393.171875 C 211.265625 -375.585938 219.359375 -349.816406 219.359375 -315.859375 L 219.359375 -261.3125 C 219.359375 -227.351562 211.265625 -201.582031 195.078125 -184 C 178.898438 -166.414062 154.226562 -157.625 121.0625 -157.625 L 89.90625 -157.625 L 89.90625 0 L 23.96875 0 L 23.96875 -419.546875 Z M 89.90625 -359.609375 L 89.90625 -217.5625 L 121.0625 -217.5625 C 131.457031 -217.5625 139.453125 -220.359375 145.046875 -225.953125 C 150.640625 -231.546875 153.4375 -241.9375 153.4375 -257.125 L 153.4375 -320.046875 C 153.4375 -335.234375 150.640625 -345.625 145.046875 -351.21875 C 139.453125 -356.8125 131.457031 -359.609375 121.0625 -359.609375 Z M 89.90625 -359.609375 "/></g></g></g><g fill="#ffffff" fill-opacity="1"><g transform="translate(448.128681, 450.626207)"><g><path d="M 23.96875 -419.546875 L 89.90625 -419.546875 L 89.90625 0 L 23.96875 0 Z M 23.96875 -419.546875 "/></g></g></g><g fill="#ffffff" fill-opacity="1"><g transform="translate(562.003371, 450.626207)"><g><path d="M 215.171875 -156.421875 L 215.171875 -100.6875 C 215.171875 -66.726562 206.878906 -40.65625 190.296875 -22.46875 C 173.710938 -4.289062 149.238281 4.796875 116.875 4.796875 C 84.507812 4.796875 60.035156 -4.289062 43.453125 -22.46875 C 26.867188 -40.65625 18.578125 -66.726562 18.578125 -100.6875 L 18.578125 -318.84375 C 18.578125 -352.8125 26.867188 -378.882812 43.453125 -397.0625 C 60.035156 -415.238281 84.507812 -424.328125 116.875 -424.328125 C 149.238281 -424.328125 173.710938 -415.238281 190.296875 -397.0625 C 206.878906 -378.882812 215.171875 -352.8125 215.171875 -318.84375 L 215.171875 -278.09375 L 152.828125 -278.09375 L 152.828125 -323.046875 C 152.828125 -338.234375 149.726562 -348.921875 143.53125 -355.109375 C 137.34375 -361.304688 129.054688 -364.40625 118.671875 -364.40625 C 108.285156 -364.40625 99.992188 -361.304688 93.796875 -355.109375 C 87.597656 -348.921875 84.5 -338.234375 84.5 -323.046875 L 84.5 -96.5 C 84.5 -81.3125 87.597656 -70.71875 93.796875 -64.71875 C 99.992188 -58.726562 108.285156 -55.734375 118.671875 -55.734375 C 129.054688 -55.734375 137.34375 -58.726562 143.53125 -64.71875 C 149.726562 -70.71875 152.828125 -81.3125 152.828125 -96.5 L 152.828125 -156.421875 Z M 215.171875 -156.421875 "/></g></g></g><g fill="#ffffff" fill-opacity="1"><g transform="translate(793.349052, 450.626207)"><g/></g></g><g fill="#ffffff" fill-opacity="1"><g transform="translate(886.25408, 450.626207)"><g><path d="M 122.859375 -233.75 L 215.171875 -233.75 L 215.171875 -100.6875 C 215.171875 -66.726562 206.878906 -40.65625 190.296875 -22.46875 C 173.710938 -4.289062 149.238281 4.796875 116.875 4.796875 C 84.507812 4.796875 60.035156 -4.289062 43.453125 -22.46875 C 26.867188 -40.65625 18.578125 -66.726562 18.578125 -100.6875 L 18.578125 -318.84375 C 18.578125 -352.8125 26.867188 -378.882812 43.453125 -397.0625 C 60.035156 -415.238281 84.507812 -424.328125 116.875 -424.328125 C 149.238281 -424.328125 173.710938 -415.238281 190.296875 -397.0625 C 206.878906 -378.882812 215.171875 -352.8125 215.171875 -318.84375 L 215.171875 -278.09375 L 152.828125 -278.09375 L 152.828125 -323.046875 C 152.828125 -338.234375 149.726562 -348.921875 143.53125 -355.109375 C 137.34375 -361.304688 129.054688 -364.40625 118.671875 -364.40625 C 108.285156 -364.40625 99.992188 -361.304688 93.796875 -355.109375 C 87.597656 -348.921875 84.5 -338.234375 84.5 -323.046875 L 84.5 -96.5 C 84.5 -81.3125 87.597656 -70.71875 93.796875 -64.71875 C 99.992188 -58.726562 108.285156 -55.734375 118.671875 -55.734375 C 129.054688 -55.734375 137.34375 -58.726562 143.53125 -64.71875 C 149.726562 -70.71875 152.828125 -81.3125 152.828125 -96.5 L 152.828125 -173.8125 L 122.859375 -173.8125 Z M 122.859375 -233.75 "/></g></g></g><g fill="#ffffff" fill-opacity="1"><g transform="translate(1119.997041, 450.626207)"><g><path d="M 237.34375 0 L 170.8125 0 L 159.421875 -76.109375 L 78.515625 -76.109375 L 67.125 0 L 6.59375 0 L 73.71875 -419.546875 L 170.21875 -419.546875 Z M 86.90625 -133.046875 L 150.4375 -133.046875 L 118.671875 -345.21875 Z M 86.90625 -133.046875 "/></g></g></g><g fill="#ffffff" fill-opacity="1"><g transform="translate(1363.928784, 450.626207)"><g><path d="M 163.625 -121.671875 L 208.578125 -419.546875 L 300.265625 -419.546875 L 300.265625 0 L 237.9375 0 L 237.9375 -300.875 L 192.390625 0 L 130.0625 0 L 80.90625 -296.671875 L 80.90625 0 L 23.375 0 L 23.375 -419.546875 L 115.078125 -419.546875 Z M 163.625 -121.671875 "/></g></g></g><g fill="#ffffff" fill-opacity="1"><g transform="translate(1688.172232, 450.626207)"><g><path d="M 89.90625 -242.734375 L 180.40625 -242.734375 L 180.40625 -182.796875 L 89.90625 -182.796875 L 89.90625 -59.9375 L 203.78125 -59.9375 L 203.78125 0 L 23.96875 0 L 23.96875 -419.546875 L 203.78125 -419.546875 L 203.78125 -359.609375 L 89.90625 -359.609375 Z M 89.90625 -242.734375 "/></g></g></g><g fill="#ffffff" fill-opacity="1"><g transform="translate(1908.729594, 450.626207)"><g><path d="M 15.578125 -318.84375 C 15.578125 -352.8125 23.664062 -378.882812 39.84375 -397.0625 C 56.03125 -415.238281 80.304688 -424.328125 112.671875 -424.328125 C 145.035156 -424.328125 169.304688 -415.238281 185.484375 -397.0625 C 201.671875 -378.882812 209.765625 -352.8125 209.765625 -318.84375 L 209.765625 -302.671875 L 147.4375 -302.671875 L 147.4375 -323.046875 C 147.4375 -338.234375 144.539062 -348.921875 138.75 -355.109375 C 132.957031 -361.304688 124.863281 -364.40625 114.46875 -364.40625 C 104.082031 -364.40625 95.992188 -361.304688 90.203125 -355.109375 C 84.410156 -348.921875 81.515625 -338.234375 81.515625 -323.046875 C 81.515625 -308.660156 84.707031 -295.972656 91.09375 -284.984375 C 97.488281 -273.992188 105.476562 -263.601562 115.0625 -253.8125 C 124.65625 -244.03125 134.945312 -234.242188 145.9375 -224.453125 C 156.925781 -214.660156 167.210938 -203.972656 176.796875 -192.390625 C 186.390625 -180.804688 194.382812 -167.617188 200.78125 -152.828125 C 207.175781 -138.046875 210.375 -120.664062 210.375 -100.6875 C 210.375 -66.726562 202.082031 -40.65625 185.5 -22.46875 C 168.914062 -4.289062 144.441406 4.796875 112.078125 4.796875 C 79.710938 4.796875 55.238281 -4.289062 38.65625 -22.46875 C 22.070312 -40.65625 13.78125 -66.726562 13.78125 -100.6875 L 13.78125 -129.453125 L 76.109375 -129.453125 L 76.109375 -96.5 C 76.109375 -81.3125 79.207031 -70.71875 85.40625 -64.71875 C 91.601562 -58.726562 99.894531 -55.734375 110.28125 -55.734375 C 120.664062 -55.734375 128.953125 -58.726562 135.140625 -64.71875 C 141.335938 -70.71875 144.4375 -81.3125 144.4375 -96.5 C 144.4375 -110.882812 141.238281 -123.566406 134.84375 -134.546875 C 128.457031 -145.535156 120.46875 -155.925781 110.875 -165.71875 C 101.289062 -175.507812 91.003906 -185.296875 80.015625 -195.078125 C 69.023438 -204.867188 58.734375 -215.554688 49.140625 -227.140625 C 39.554688 -238.734375 31.566406 -251.921875 25.171875 -266.703125 C 18.773438 -281.492188 15.578125 -298.875 15.578125 -318.84375 Z M 15.578125 -318.84375 "/></g></g></g></g></g></g></g></g></svg>