<svg xmlns="http://www.w3.org/2000/svg" xmlns:xlink="http://www.w3.org/1999/xlink" width="4687" zoomAndPan="magnify" viewBox="0 0 3515.04 850.499997" height="1134" preserveAspectRatio="xMidYMid meet" version="1.0"><defs><clipPath id="c6c986da50"><path d="M 2917 451 L 3230 451 L 3230 850 L 2917 850 Z M 2917 451 " clip-rule="nonzero"/></clipPath></defs><path fill="#ec1c2c" d="M 751.589844 1.710938 L 242.867188 237.371094 L 369.621094 719.808594 L 466.097656 707.921875 L 439.582031 404.597656 L 471.226562 390.484375 L 525.964844 700.5625 L 690.863281 680.375 L 661.527344 345.492188 L 692.917969 331.550781 L 753.042969 672.679688 L 919.824219 652.234375 L 887.75 285.1875 L 919.480469 271.074219 L 985.253906 644.195312 L 1150.152344 623.921875 L 1150.152344 101.535156 Z M 751.589844 1.710938 " fill-opacity="1" fill-rule="nonzero"/><path fill="#ec1c2c" d="M 763.5625 733.496094 L 771.945312 780.96875 L 1150.152344 844.011719 L 1150.152344 686.023438 L 763.734375 733.410156 Z M 763.5625 733.496094 " fill-opacity="1" fill-rule="nonzero"/><path fill="#ec1c2c" d="M 1507.914062 634.355469 L 1507.914062 699.453125 L 1588.054688 699.453125 C 1588.039062 706.046875 1587.191406 712.53125 1585.511719 718.90625 C 1583.832031 725.285156 1581.371094 731.34375 1578.132812 737.089844 C 1576.449219 739.933594 1574.566406 742.632812 1572.480469 745.195312 C 1570.394531 747.757812 1568.128906 750.152344 1565.6875 752.378906 C 1563.246094 754.601562 1560.652344 756.632812 1557.90625 758.472656 C 1555.164062 760.3125 1552.296875 761.9375 1549.308594 763.347656 C 1542.128906 766.648438 1534.667969 769.082031 1526.925781 770.660156 C 1519.183594 772.234375 1511.363281 772.90625 1503.46875 772.671875 C 1498.949219 772.785156 1494.449219 772.558594 1489.964844 771.996094 C 1485.484375 771.433594 1481.066406 770.539062 1476.71875 769.3125 C 1472.371094 768.089844 1468.136719 766.546875 1464.019531 764.6875 C 1459.902344 762.828125 1455.945312 760.667969 1452.148438 758.214844 C 1448.429688 755.636719 1444.917969 752.796875 1441.613281 749.699219 C 1438.3125 746.601562 1435.253906 743.277344 1432.445312 739.726562 C 1429.632812 736.175781 1427.097656 732.4375 1424.839844 728.511719 C 1422.582031 724.585938 1420.621094 720.515625 1418.964844 716.304688 C 1414.816406 705.699219 1411.765625 694.785156 1409.804688 683.570312 C 1407.847656 672.351562 1407.023438 661.050781 1407.332031 649.667969 C 1407.023438 638.367188 1407.875 627.152344 1409.894531 616.027344 C 1411.910156 604.902344 1415.046875 594.105469 1419.308594 583.632812 C 1421.019531 579.457031 1423.019531 575.429688 1425.316406 571.542969 C 1427.609375 567.660156 1430.171875 563.960938 1433.003906 560.449219 C 1435.835938 556.9375 1438.90625 553.648438 1442.214844 550.582031 C 1445.519531 547.515625 1449.03125 544.703125 1452.75 542.144531 C 1456.484375 539.71875 1460.378906 537.582031 1464.433594 535.738281 C 1468.484375 533.898438 1472.65625 532.367188 1476.9375 531.148438 C 1481.222656 529.929688 1485.574219 529.039062 1489.992188 528.472656 C 1494.410156 527.910156 1498.84375 527.675781 1503.296875 527.773438 C 1512.679688 527.671875 1521.890625 528.898438 1530.921875 531.453125 C 1538.984375 533.722656 1546.425781 537.285156 1553.246094 542.144531 C 1559.734375 546.871094 1565.207031 552.574219 1569.664062 559.253906 C 1574.359375 566.320312 1577.867188 573.933594 1580.1875 582.09375 L 1669.136719 582.09375 C 1667.960938 572.757812 1665.871094 563.632812 1662.859375 554.71875 C 1659.851562 545.804688 1655.984375 537.28125 1651.261719 529.144531 C 1646.570312 521.101562 1641.171875 513.574219 1635.058594 506.554688 C 1628.945312 499.535156 1622.230469 493.148438 1614.910156 487.402344 C 1607.222656 481.394531 1599.066406 476.109375 1590.449219 471.539062 C 1581.828125 466.972656 1572.878906 463.191406 1563.59375 460.199219 C 1553.570312 456.9375 1543.351562 454.503906 1532.933594 452.898438 C 1522.515625 451.289062 1512.039062 450.53125 1501.5 450.617188 C 1489.167969 450.503906 1476.933594 451.570312 1464.808594 453.8125 C 1452.679688 456.058594 1440.875 459.441406 1429.398438 463.964844 C 1418.375 468.351562 1407.933594 473.847656 1398.074219 480.453125 C 1388.214844 487.054688 1379.15625 494.617188 1370.898438 503.140625 C 1362.265625 512.148438 1354.648438 521.949219 1348.050781 532.542969 C 1341.449219 543.132812 1336.007812 554.289062 1331.726562 566.011719 C 1326.847656 579.582031 1323.226562 593.484375 1320.871094 607.714844 C 1318.511719 621.945312 1317.457031 636.273438 1317.699219 650.695312 C 1317.460938 659.84375 1317.777344 668.972656 1318.648438 678.082031 C 1319.519531 687.191406 1320.9375 696.214844 1322.902344 705.152344 C 1324.871094 714.089844 1327.371094 722.875 1330.40625 731.507812 C 1333.445312 740.144531 1336.992188 748.558594 1341.050781 756.761719 C 1344.695312 763.875 1348.832031 770.691406 1353.457031 777.210938 C 1358.082031 783.726562 1363.148438 789.882812 1368.65625 795.675781 C 1374.164062 801.464844 1380.058594 806.832031 1386.335938 811.777344 C 1392.617188 816.722656 1399.214844 821.195312 1406.136719 825.195312 C 1409.65625 827.070312 1413.230469 828.847656 1416.855469 830.515625 C 1420.476562 832.1875 1424.148438 833.75 1427.863281 835.207031 C 1431.578125 836.664062 1435.332031 838.007812 1439.128906 839.246094 C 1442.921875 840.484375 1446.75 841.609375 1450.609375 842.621094 C 1454.46875 843.636719 1458.351562 844.535156 1462.265625 845.324219 C 1466.175781 846.109375 1470.109375 846.785156 1474.0625 847.339844 C 1478.011719 847.898438 1481.976562 848.339844 1485.953125 848.667969 C 1489.929688 848.996094 1493.914062 849.207031 1497.902344 849.300781 C 1501.890625 849.394531 1505.882812 849.371094 1509.871094 849.234375 C 1513.859375 849.09375 1517.839844 848.839844 1521.8125 848.46875 C 1525.785156 848.097656 1529.742188 847.613281 1533.6875 847.011719 C 1537.632812 846.410156 1541.558594 845.695312 1545.460938 844.863281 C 1549.363281 844.035156 1553.238281 843.089844 1557.085938 842.035156 C 1560.9375 840.976562 1564.75 839.808594 1568.53125 838.53125 C 1572.308594 837.253906 1576.050781 835.863281 1579.75 834.367188 C 1583.449219 832.871094 1587.101562 831.265625 1590.707031 829.554688 C 1596.917969 826.367188 1602.871094 822.753906 1608.570312 818.71875 C 1614.265625 814.679688 1619.648438 810.257812 1624.714844 805.453125 C 1629.78125 800.644531 1634.480469 795.503906 1638.8125 790.027344 C 1643.144531 784.550781 1647.066406 778.792969 1650.574219 772.757812 C 1654.34375 766.03125 1657.640625 759.082031 1660.472656 751.914062 C 1663.304688 744.742188 1665.640625 737.414062 1667.480469 729.925781 C 1669.324219 722.441406 1670.65625 714.863281 1671.476562 707.199219 C 1672.296875 699.53125 1672.601562 691.847656 1672.386719 684.140625 L 1672.386719 633.84375 Z M 1507.914062 634.355469 " fill-opacity="1" fill-rule="nonzero"/><path fill="#ec1c2c" d="M 2615.332031 844.695312 L 2615.332031 456.09375 L 2881.496094 456.09375 L 2881.496094 527.945312 L 2703.171875 527.945312 L 2703.171875 614.339844 L 2847.371094 614.339844 L 2847.371094 686.191406 L 2703.171875 686.191406 L 2703.171875 772.757812 L 2881.921875 772.757812 L 2881.921875 844.695312 Z M 2615.332031 844.695312 " fill-opacity="1" fill-rule="nonzero"/><g clip-path="url(#c6c986da50)"><path fill="#ec1c2c" d="M 3139.875 570.375 C 3139.683594 567.035156 3139.132812 563.753906 3138.230469 560.53125 C 3137.324219 557.308594 3136.085938 554.222656 3134.515625 551.269531 C 3132.941406 548.316406 3131.074219 545.566406 3128.90625 543.019531 C 3126.738281 540.46875 3124.320312 538.183594 3121.660156 536.15625 C 3118.386719 533.957031 3114.960938 532.035156 3111.375 530.394531 C 3107.792969 528.75 3104.097656 527.410156 3100.296875 526.371094 C 3096.496094 525.332031 3092.632812 524.605469 3088.710938 524.195312 C 3084.789062 523.785156 3080.863281 523.695312 3076.929688 523.925781 C 3065.839844 523.617188 3055.089844 525.382812 3044.683594 529.230469 C 3040.789062 530.644531 3037.164062 532.566406 3033.808594 534.992188 C 3030.453125 537.421875 3027.492188 540.261719 3024.925781 543.515625 C 3022.714844 546.496094 3021.027344 549.75 3019.855469 553.273438 C 3018.6875 556.796875 3018.097656 560.417969 3018.085938 564.128906 C 3017.949219 567.117188 3018.230469 570.066406 3018.929688 572.972656 C 3019.625 575.882812 3020.714844 578.636719 3022.191406 581.238281 C 3025.292969 586.429688 3029.398438 590.652344 3034.503906 593.898438 C 3040.488281 597.753906 3046.84375 600.832031 3053.578125 603.136719 C 3061.394531 605.875 3069.347656 608.125 3077.441406 609.894531 L 3111.652344 617.847656 C 3128.441406 621.375 3144.664062 626.648438 3160.316406 633.671875 C 3173.964844 639.75 3186.335938 647.792969 3197.4375 657.792969 C 3202.476562 662.398438 3206.984375 667.476562 3210.960938 673.023438 C 3214.941406 678.574219 3218.300781 684.476562 3221.042969 690.726562 C 3223.945312 697.476562 3226.117188 704.457031 3227.558594 711.664062 C 3229 718.871094 3229.679688 726.148438 3229.59375 733.496094 C 3229.742188 739.015625 3229.460938 744.511719 3228.753906 749.984375 C 3228.042969 755.457031 3226.914062 760.84375 3225.371094 766.144531 C 3223.824219 771.441406 3221.878906 776.589844 3219.53125 781.585938 C 3217.1875 786.582031 3214.46875 791.367188 3211.378906 795.941406 C 3208.109375 800.476562 3204.53125 804.75 3200.644531 808.769531 C 3196.757812 812.789062 3192.605469 816.503906 3188.179688 819.921875 C 3183.757812 823.339844 3179.109375 826.421875 3174.242188 829.167969 C 3169.375 831.914062 3164.332031 834.296875 3159.121094 836.3125 C 3146.050781 841.363281 3132.617188 845.082031 3118.8125 847.472656 C 3105.007812 849.863281 3091.101562 850.875 3077.097656 850.511719 C 3062.875 850.820312 3048.753906 849.746094 3034.738281 847.300781 C 3020.722656 844.855469 3007.074219 841.078125 2993.792969 835.972656 C 2988.230469 833.816406 2982.863281 831.257812 2977.683594 828.296875 C 2972.503906 825.335938 2967.574219 822.007812 2962.890625 818.3125 C 2958.207031 814.613281 2953.828125 810.589844 2949.746094 806.238281 C 2945.664062 801.886719 2941.929688 797.257812 2938.542969 792.347656 C 2935.101562 786.941406 2932.066406 781.320312 2929.441406 775.472656 C 2926.816406 769.628906 2924.628906 763.625 2922.875 757.460938 C 2921.125 751.300781 2919.828125 745.042969 2918.984375 738.691406 C 2918.140625 732.339844 2917.761719 725.960938 2917.84375 719.554688 L 3002.433594 719.554688 C 3002.585938 725.289062 3003.570312 730.882812 3005.375 736.332031 C 3007.179688 741.78125 3009.734375 746.851562 3013.039062 751.542969 C 3016.320312 755.898438 3020.140625 759.714844 3024.503906 762.984375 C 3028.867188 766.257812 3033.597656 768.859375 3038.695312 770.789062 C 3044.652344 773.035156 3050.765625 774.695312 3057.035156 775.773438 C 3063.308594 776.851562 3069.625 777.328125 3075.988281 777.207031 C 3087.734375 777.472656 3099.136719 775.617188 3110.199219 771.648438 C 3114.550781 770.105469 3118.621094 768.011719 3122.410156 765.371094 C 3126.199219 762.726562 3129.570312 759.628906 3132.519531 756.078125 C 3133.816406 754.449219 3134.964844 752.722656 3135.96875 750.898438 C 3136.972656 749.074219 3137.816406 747.179688 3138.5 745.214844 C 3139.183594 743.246094 3139.699219 741.238281 3140.046875 739.183594 C 3140.390625 737.132812 3140.5625 735.066406 3140.558594 732.984375 C 3140.574219 731.140625 3140.429688 729.308594 3140.125 727.488281 C 3139.816406 725.671875 3139.351562 723.894531 3138.734375 722.15625 C 3138.113281 720.421875 3137.347656 718.753906 3136.433594 717.152344 C 3135.519531 715.550781 3134.472656 714.042969 3133.289062 712.625 C 3130.339844 709.402344 3127.0625 706.5625 3123.449219 704.105469 C 3119.835938 701.648438 3115.988281 699.640625 3111.910156 698.082031 C 3100.394531 693.382812 3088.5625 689.703125 3076.414062 687.046875 L 3034.847656 676.953125 C 3027.664062 675.519531 3020.597656 673.648438 3013.648438 671.335938 C 3006.699219 669.027344 2999.917969 666.296875 2993.304688 663.144531 C 2986.695312 659.996094 2980.304688 656.445312 2974.132812 652.503906 C 2967.960938 648.558594 2962.054688 644.25 2956.417969 639.574219 C 2954.027344 637.402344 2951.765625 635.105469 2949.628906 632.679688 C 2947.492188 630.257812 2945.496094 627.726562 2943.640625 625.082031 C 2941.785156 622.4375 2940.082031 619.699219 2938.527344 616.867188 C 2936.972656 614.035156 2935.582031 611.125 2934.351562 608.140625 C 2933.121094 605.152344 2932.054688 602.109375 2931.160156 599.003906 C 2930.269531 595.902344 2929.546875 592.757812 2929 589.574219 C 2928.453125 586.390625 2928.085938 583.1875 2927.890625 579.960938 C 2927.699219 576.738281 2927.6875 573.511719 2927.851562 570.289062 C 2927.707031 564.738281 2928.011719 559.210938 2928.761719 553.710938 C 2929.515625 548.210938 2930.703125 542.808594 2932.332031 537.5 C 2933.960938 532.195312 2936.003906 527.050781 2938.46875 522.078125 C 2940.929688 517.101562 2943.777344 512.355469 2947.011719 507.84375 C 2950.410156 503.253906 2954.097656 498.910156 2958.082031 494.816406 C 2962.0625 490.722656 2966.300781 486.910156 2970.792969 483.382812 C 2975.289062 479.859375 2979.996094 476.648438 2984.921875 473.753906 C 2989.84375 470.863281 2994.941406 468.3125 3000.207031 466.101562 C 3012.375 460.945312 3024.941406 457.105469 3037.910156 454.582031 C 3050.882812 452.058594 3063.972656 450.910156 3077.183594 451.132812 C 3090.402344 450.820312 3103.5 451.929688 3116.480469 454.453125 C 3129.460938 456.976562 3142.019531 460.859375 3154.160156 466.101562 C 3159.3125 468.308594 3164.28125 470.863281 3169.074219 473.765625 C 3173.867188 476.667969 3178.433594 479.894531 3182.773438 483.4375 C 3187.113281 486.984375 3191.183594 490.8125 3194.988281 494.929688 C 3198.789062 499.046875 3202.285156 503.40625 3205.476562 508.015625 C 3208.527344 512.613281 3211.226562 517.410156 3213.5625 522.410156 C 3215.902344 527.410156 3217.859375 532.554688 3219.429688 537.847656 C 3221.003906 543.136719 3222.175781 548.515625 3222.945312 553.980469 C 3223.71875 559.445312 3224.082031 564.9375 3224.035156 570.457031 Z M 3139.875 570.375 " fill-opacity="1" fill-rule="nonzero"/></g><path fill="#ec1c2c" d="M 2552.726562 844.695312 L 2465.828125 844.695312 L 2465.828125 549.246094 L 2456.933594 549.160156 L 2369.183594 844.695312 L 2282.371094 844.695312 L 2196.929688 549.160156 L 2185.894531 549.246094 L 2185.894531 844.695312 L 2098.914062 844.695312 L 2098.914062 456.09375 L 2246.621094 456.09375 L 2321.203125 716.472656 L 2330.265625 716.472656 L 2404.847656 456.09375 L 2552.726562 456.09375 Z M 2552.726562 844.695312 " fill-opacity="1" fill-rule="nonzero"/><path fill="#ec1c2c" d="M 1962.324219 844.609375 L 2056.40625 844.609375 L 1925.976562 456.007812 L 1806.578125 456.007812 L 1675.890625 844.609375 L 1769.972656 844.609375 L 1795.632812 759.070312 L 1936.667969 759.070312 Z M 1815.902344 691.667969 L 1858.664062 549.160156 L 1874.574219 549.160156 L 1917.335938 691.667969 Z M 1815.902344 691.667969 " fill-opacity="1" fill-rule="nonzero"/><path fill="#ec1c2c" d="M 3250.722656 497.066406 C 3247.957031 497.070312 3245.304688 496.53125 3242.765625 495.441406 C 3240.300781 494.398438 3238.121094 492.929688 3236.226562 491.035156 C 3234.332031 489.140625 3232.863281 486.960938 3231.820312 484.492188 C 3231.292969 483.226562 3230.894531 481.917969 3230.628906 480.570312 C 3230.359375 479.226562 3230.226562 477.867188 3230.226562 476.496094 C 3230.226562 475.121094 3230.359375 473.761719 3230.628906 472.417969 C 3230.894531 471.070312 3231.292969 469.765625 3231.820312 468.496094 C 3232.867188 466.03125 3234.335938 463.851562 3236.230469 461.960938 C 3238.125 460.066406 3240.300781 458.59375 3242.765625 457.546875 C 3244.035156 457.023438 3245.339844 456.625 3246.6875 456.355469 C 3248.03125 456.089844 3249.390625 455.953125 3250.765625 455.953125 C 3252.136719 455.953125 3253.496094 456.089844 3254.839844 456.355469 C 3256.1875 456.625 3257.492188 457.023438 3258.761719 457.546875 C 3261.222656 458.59375 3263.402344 460.066406 3265.296875 461.960938 C 3267.191406 463.851562 3268.660156 466.03125 3269.707031 468.496094 C 3270.234375 469.765625 3270.632812 471.070312 3270.898438 472.417969 C 3271.167969 473.761719 3271.300781 475.121094 3271.300781 476.492188 C 3271.300781 477.867188 3271.167969 479.226562 3270.898438 480.570312 C 3270.632812 481.917969 3270.234375 483.226562 3269.707031 484.492188 C 3268.660156 486.957031 3267.191406 489.136719 3265.296875 491.03125 C 3263.402344 492.921875 3261.222656 494.394531 3258.761719 495.441406 C 3256.222656 496.53125 3253.570312 497.070312 3250.804688 497.066406 M 3250.804688 491.507812 C 3253.507812 491.523438 3256.015625 490.839844 3258.332031 489.453125 C 3260.59375 488.121094 3262.390625 486.324219 3263.722656 484.066406 C 3264.386719 482.921875 3264.890625 481.710938 3265.234375 480.433594 C 3265.578125 479.160156 3265.75 477.859375 3265.75 476.539062 C 3265.75 475.214844 3265.578125 473.914062 3265.234375 472.640625 C 3264.890625 471.363281 3264.386719 470.152344 3263.722656 469.007812 C 3262.390625 466.75 3260.59375 464.953125 3258.332031 463.621094 C 3257.1875 462.960938 3255.980469 462.457031 3254.703125 462.117188 C 3253.425781 461.773438 3252.128906 461.605469 3250.808594 461.605469 C 3249.484375 461.605469 3248.1875 461.773438 3246.910156 462.117188 C 3245.632812 462.457031 3244.425781 462.960938 3243.28125 463.621094 C 3241.023438 464.957031 3239.226562 466.753906 3237.890625 469.007812 C 3237.230469 470.152344 3236.730469 471.363281 3236.386719 472.640625 C 3236.046875 473.917969 3235.875 475.214844 3235.875 476.539062 C 3235.875 477.859375 3236.046875 479.15625 3236.386719 480.433594 C 3236.730469 481.710938 3237.230469 482.921875 3237.890625 484.066406 C 3239.222656 486.324219 3241.019531 488.121094 3243.28125 489.453125 C 3245.597656 490.839844 3248.105469 491.523438 3250.804688 491.507812 M 3243.28125 485.773438 L 3243.28125 466.871094 L 3252.433594 466.871094 C 3253.691406 466.839844 3254.886719 467.097656 3256.023438 467.640625 C 3257.03125 468.121094 3257.828125 468.832031 3258.417969 469.78125 C 3259.035156 470.835938 3259.320312 471.976562 3259.273438 473.199219 C 3259.328125 474.425781 3259.042969 475.566406 3258.417969 476.621094 C 3257.804688 477.582031 3256.976562 478.292969 3255.9375 478.761719 C 3254.796875 479.28125 3253.601562 479.539062 3252.347656 479.53125 L 3246.1875 479.53125 L 3246.1875 475.851562 L 3251.40625 475.851562 C 3252.121094 475.871094 3252.75 475.644531 3253.289062 475.167969 C 3253.804688 474.644531 3254.03125 474.019531 3253.972656 473.285156 C 3254.03125 472.554688 3253.804688 471.925781 3253.289062 471.40625 C 3252.734375 470.972656 3252.109375 470.773438 3251.40625 470.804688 L 3248.582031 470.804688 L 3248.582031 485.945312 Z M 3255.597656 477.222656 L 3259.785156 485.773438 L 3253.800781 485.773438 L 3249.949219 477.222656 Z M 3255.597656 477.222656 " fill-opacity="1" fill-rule="nonzero"/><path fill="#ec1c2c" d="M 1697.445312 5.304688 L 1785.28125 5.304688 L 1785.28125 393.90625 L 1697.445312 393.90625 Z M 1697.445312 5.304688 " fill-opacity="1" fill-rule="nonzero"/><path fill="#ec1c2c" d="M 2202.402344 199.5625 C 2202.691406 208.929688 2202.394531 218.28125 2201.507812 227.613281 C 2200.621094 236.941406 2199.152344 246.179688 2197.105469 255.328125 C 2195.054688 264.472656 2192.441406 273.457031 2189.265625 282.273438 C 2186.085938 291.089844 2182.371094 299.675781 2178.113281 308.027344 C 2174.378906 315.101562 2170.160156 321.875 2165.460938 328.347656 C 2160.757812 334.820312 2155.621094 340.925781 2150.046875 346.664062 C 2144.476562 352.40625 2138.523438 357.71875 2132.195312 362.609375 C 2125.863281 367.5 2119.21875 371.917969 2112.257812 375.859375 C 2108.675781 377.769531 2105.039062 379.566406 2101.347656 381.253906 C 2097.65625 382.941406 2093.917969 384.511719 2090.128906 385.972656 C 2086.339844 387.429688 2082.511719 388.769531 2078.644531 389.992188 C 2074.773438 391.21875 2070.871094 392.320312 2066.933594 393.304688 C 2062.996094 394.289062 2059.03125 395.152344 2055.042969 395.894531 C 2051.050781 396.636719 2047.042969 397.253906 2043.015625 397.75 C 2038.984375 398.246094 2034.945312 398.617188 2030.894531 398.867188 C 2026.84375 399.113281 2022.789062 399.238281 2018.730469 399.238281 C 2014.671875 399.238281 2010.617188 399.113281 2006.566406 398.867188 C 2002.515625 398.617188 1998.476562 398.246094 1994.449219 397.75 C 1990.421875 397.253906 1986.410156 396.636719 1982.421875 395.894531 C 1978.429688 395.152344 1974.46875 394.289062 1970.53125 393.304688 C 1966.59375 392.320312 1962.6875 391.214844 1958.820312 389.992188 C 1954.949219 388.769531 1951.121094 387.429688 1947.332031 385.972656 C 1943.546875 384.511719 1939.804688 382.941406 1936.113281 381.253906 C 1932.421875 379.566406 1928.789062 377.769531 1925.207031 375.859375 C 1918.226562 371.871094 1911.566406 367.410156 1905.226562 362.472656 C 1898.886719 357.535156 1892.929688 352.167969 1887.355469 346.378906 C 1881.785156 340.589844 1876.652344 334.429688 1871.960938 327.90625 C 1867.269531 321.378906 1863.066406 314.554688 1859.347656 307.425781 C 1857.375 303.214844 1855.519531 298.953125 1853.777344 294.640625 C 1852.039062 290.324219 1850.417969 285.96875 1848.917969 281.566406 C 1847.417969 277.164062 1846.039062 272.722656 1844.785156 268.242188 C 1843.527344 263.765625 1842.394531 259.253906 1841.386719 254.714844 C 1840.378906 250.175781 1839.5 245.609375 1838.742188 241.019531 C 1837.984375 236.429688 1837.355469 231.824219 1836.851562 227.199219 C 1836.347656 222.574219 1835.972656 217.941406 1835.726562 213.296875 C 1835.476562 208.652344 1835.355469 204.003906 1835.363281 199.351562 C 1835.371094 194.703125 1835.503906 190.054688 1835.769531 185.410156 C 1836.03125 180.765625 1836.421875 176.132812 1836.941406 171.511719 C 1837.457031 166.890625 1838.101562 162.285156 1838.875 157.699219 C 1839.644531 153.109375 1840.542969 148.546875 1841.5625 144.011719 C 1842.585938 139.472656 1843.730469 134.96875 1845.003906 130.492188 C 1846.273438 126.019531 1847.664062 121.582031 1849.179688 117.183594 C 1850.691406 112.785156 1852.324219 108.433594 1854.078125 104.125 C 1855.832031 99.816406 1857.703125 95.5625 1859.691406 91.355469 C 1863.425781 84.28125 1867.640625 77.503906 1872.34375 71.03125 C 1877.042969 64.558594 1882.179688 58.453125 1887.753906 52.714844 C 1893.324219 46.972656 1899.277344 41.660156 1905.609375 36.769531 C 1911.941406 31.878906 1918.585938 27.464844 1925.546875 23.523438 C 1929.128906 21.617188 1932.769531 19.820312 1936.460938 18.136719 C 1940.152344 16.453125 1943.890625 14.882812 1947.679688 13.429688 C 1951.46875 11.972656 1955.296875 10.636719 1959.167969 9.414062 C 1963.035156 8.195312 1966.941406 7.09375 1970.878906 6.109375 C 1974.816406 5.128906 1978.777344 4.265625 1982.769531 3.527344 C 1986.757812 2.785156 1990.765625 2.167969 1994.792969 1.675781 C 1998.820312 1.179688 2002.859375 0.808594 2006.910156 0.558594 C 2010.960938 0.3125 2015.015625 0.1875 2019.074219 0.1875 C 2023.132812 0.1875 2027.183594 0.3125 2031.234375 0.558594 C 2035.285156 0.808594 2039.324219 1.179688 2043.351562 1.675781 C 2047.378906 2.167969 2051.386719 2.785156 2055.378906 3.527344 C 2059.367188 4.265625 2063.332031 5.128906 2067.269531 6.109375 C 2071.207031 7.09375 2075.109375 8.195312 2078.980469 9.414062 C 2082.847656 10.636719 2086.679688 11.972656 2090.464844 13.429688 C 2094.253906 14.882812 2097.996094 16.453125 2101.6875 18.136719 C 2105.378906 19.820312 2109.015625 21.617188 2112.597656 23.523438 C 2119.558594 27.464844 2126.203125 31.878906 2132.535156 36.769531 C 2138.867188 41.660156 2144.816406 46.976562 2150.390625 52.714844 C 2155.964844 58.453125 2161.101562 64.5625 2165.800781 71.035156 C 2170.503906 77.507812 2174.71875 84.28125 2178.453125 91.355469 C 2182.710938 99.707031 2186.429688 108.289062 2189.605469 117.109375 C 2192.78125 125.925781 2195.394531 134.90625 2197.441406 144.054688 C 2199.492188 153.199219 2200.960938 162.4375 2201.847656 171.769531 C 2202.734375 181.101562 2203.03125 190.449219 2202.746094 199.820312 M 2113.367188 199.820312 C 2113.695312 188.402344 2112.894531 177.0625 2110.964844 165.804688 C 2109.035156 154.542969 2106.015625 143.585938 2101.90625 132.925781 C 2100.285156 128.765625 2098.363281 124.742188 2096.144531 120.863281 C 2093.925781 116.988281 2091.429688 113.292969 2088.664062 109.785156 C 2085.894531 106.277344 2082.882812 102.996094 2079.628906 99.933594 C 2076.371094 96.875 2072.90625 94.070312 2069.234375 91.527344 C 2067.363281 90.378906 2065.453125 89.296875 2063.507812 88.277344 C 2061.558594 87.261719 2059.578125 86.3125 2057.566406 85.429688 C 2055.554688 84.550781 2053.515625 83.742188 2051.449219 83 C 2049.378906 82.257812 2047.289062 81.589844 2045.175781 80.996094 C 2043.0625 80.398438 2040.929688 79.875 2038.78125 79.425781 C 2036.628906 78.972656 2034.464844 78.597656 2032.289062 78.296875 C 2030.117188 77.996094 2027.933594 77.769531 2025.742188 77.621094 C 2023.550781 77.46875 2021.355469 77.394531 2019.160156 77.394531 C 2016.960938 77.394531 2014.769531 77.46875 2012.578125 77.621094 C 2010.386719 77.769531 2008.203125 77.996094 2006.027344 78.296875 C 2003.851562 78.597656 2001.6875 78.972656 1999.539062 79.425781 C 1997.390625 79.875 1995.257812 80.398438 1993.144531 80.996094 C 1991.027344 81.589844 1988.9375 82.257812 1986.871094 83 C 1984.800781 83.742188 1982.761719 84.550781 1980.75 85.429688 C 1978.738281 86.3125 1976.757812 87.261719 1974.8125 88.277344 C 1972.863281 89.296875 1970.953125 90.378906 1969.082031 91.527344 C 1965.40625 94.074219 1961.941406 96.878906 1958.679688 99.941406 C 1955.417969 103 1952.402344 106.285156 1949.625 109.792969 C 1946.851562 113.300781 1944.351562 116.992188 1942.121094 120.867188 C 1939.890625 124.746094 1937.960938 128.765625 1936.324219 132.925781 C 1934.414062 138.285156 1932.734375 143.714844 1931.289062 149.214844 C 1929.84375 154.71875 1928.636719 160.269531 1927.664062 165.875 C 1926.695312 171.480469 1925.96875 177.117188 1925.480469 182.785156 C 1924.992188 188.453125 1924.75 194.128906 1924.75 199.820312 C 1924.75 205.507812 1924.992188 211.183594 1925.480469 216.851562 C 1925.96875 222.519531 1926.695312 228.15625 1927.664062 233.761719 C 1928.636719 239.367188 1929.84375 244.921875 1931.289062 250.421875 C 1932.734375 255.921875 1934.414062 261.351562 1936.324219 266.710938 C 1937.957031 270.875 1939.890625 274.894531 1942.117188 278.769531 C 1944.347656 282.648438 1946.847656 286.339844 1949.625 289.847656 C 1952.398438 293.355469 1955.417969 296.636719 1958.675781 299.699219 C 1961.9375 302.761719 1965.40625 305.5625 1969.082031 308.109375 C 1970.953125 309.257812 1972.863281 310.34375 1974.8125 311.359375 C 1976.757812 312.375 1978.738281 313.324219 1980.75 314.207031 C 1982.761719 315.085938 1984.800781 315.898438 1986.871094 316.636719 C 1988.9375 317.378906 1991.027344 318.046875 1993.144531 318.644531 C 1995.257812 319.238281 1997.390625 319.761719 1999.539062 320.214844 C 2001.6875 320.664062 2003.851562 321.039062 2006.027344 321.339844 C 2008.203125 321.640625 2010.386719 321.867188 2012.578125 322.019531 C 2014.769531 322.167969 2016.960938 322.246094 2019.160156 322.246094 C 2021.355469 322.246094 2023.550781 322.167969 2025.742188 322.019531 C 2027.933594 321.867188 2030.117188 321.640625 2032.289062 321.339844 C 2034.464844 321.039062 2036.628906 320.664062 2038.78125 320.214844 C 2040.929688 319.761719 2043.0625 319.238281 2045.175781 318.644531 C 2047.289062 318.046875 2049.378906 317.378906 2051.449219 316.636719 C 2053.515625 315.898438 2055.554688 315.085938 2057.566406 314.207031 C 2059.578125 313.324219 2061.558594 312.375 2063.507812 311.359375 C 2065.453125 310.34375 2067.363281 309.257812 2069.234375 308.109375 C 2072.90625 305.566406 2076.371094 302.765625 2079.628906 299.703125 C 2082.886719 296.644531 2085.898438 293.359375 2088.667969 289.851562 C 2091.433594 286.347656 2093.925781 282.652344 2096.148438 278.773438 C 2098.367188 274.894531 2100.285156 270.875 2101.90625 266.710938 C 2106.015625 256.050781 2109.035156 245.09375 2110.964844 233.835938 C 2112.894531 222.574219 2113.695312 211.238281 2113.367188 199.820312 " fill-opacity="1" fill-rule="nonzero"/><path fill="#ec1c2c" d="M 1512.960938 258.414062 L 1558.035156 393.90625 L 1654.425781 393.90625 L 1604.304688 247.976562 L 1535.882812 247.976562 L 1531.777344 235.402344 C 1541.503906 234.027344 1550.984375 231.671875 1560.21875 228.328125 C 1569.453125 224.984375 1578.25 220.726562 1586.601562 215.558594 C 1590.039062 213.230469 1593.324219 210.699219 1596.457031 207.972656 C 1599.585938 205.242188 1602.542969 202.335938 1605.320312 199.25 C 1608.097656 196.160156 1610.679688 192.917969 1613.066406 189.515625 C 1615.449219 186.117188 1617.621094 182.582031 1619.578125 178.921875 C 1621.535156 175.253906 1623.261719 171.488281 1624.757812 167.613281 C 1626.257812 163.738281 1627.515625 159.789062 1628.535156 155.761719 C 1629.554688 151.734375 1630.328125 147.664062 1630.851562 143.542969 C 1631.375 139.421875 1631.652344 135.285156 1631.671875 131.132812 C 1631.796875 125.394531 1631.527344 119.675781 1630.859375 113.976562 C 1630.191406 108.273438 1629.136719 102.648438 1627.6875 97.09375 C 1626.242188 91.539062 1624.421875 86.113281 1622.222656 80.8125 C 1620.027344 75.511719 1617.472656 70.386719 1614.566406 65.4375 C 1611.769531 60.640625 1608.628906 56.078125 1605.152344 51.746094 C 1601.671875 47.417969 1597.894531 43.367188 1593.8125 39.597656 C 1589.734375 35.832031 1585.398438 32.382812 1580.808594 29.261719 C 1576.214844 26.136719 1571.417969 23.367188 1566.414062 20.957031 C 1560.539062 18.214844 1554.523438 15.820312 1548.367188 13.773438 C 1542.210938 11.730469 1535.960938 10.050781 1529.609375 8.730469 C 1523.257812 7.414062 1516.855469 6.46875 1510.394531 5.894531 C 1503.933594 5.320312 1497.460938 5.125 1490.980469 5.304688 L 1334.890625 5.304688 L 1334.890625 393.90625 L 1422.726562 393.90625 L 1422.726562 258.414062 Z M 1511.335938 178.007812 C 1505.355469 180.199219 1499.222656 181.808594 1492.9375 182.828125 C 1486.652344 183.851562 1480.324219 184.265625 1473.960938 184.078125 L 1422.644531 184.078125 L 1422.644531 76.644531 L 1473.960938 76.644531 C 1480.335938 76.445312 1486.671875 76.882812 1492.960938 77.945312 C 1499.253906 79.011719 1505.378906 80.6875 1511.335938 82.972656 C 1513.671875 83.90625 1515.921875 85.019531 1518.078125 86.3125 C 1520.238281 87.605469 1522.28125 89.0625 1524.207031 90.683594 C 1526.132812 92.304688 1527.914062 94.066406 1529.558594 95.972656 C 1531.203125 97.878906 1532.683594 99.90625 1534 102.046875 C 1536.707031 106.402344 1538.714844 111.058594 1540.027344 116.011719 C 1541.339844 120.96875 1541.894531 126.007812 1541.699219 131.132812 C 1541.90625 136.167969 1541.363281 141.125 1540.066406 145.996094 C 1538.765625 150.867188 1536.773438 155.4375 1534.085938 159.699219 C 1532.757812 161.785156 1531.273438 163.746094 1529.628906 165.589844 C 1527.984375 167.433594 1526.203125 169.136719 1524.285156 170.691406 C 1522.367188 172.246094 1520.335938 173.636719 1518.191406 174.863281 C 1516.046875 176.09375 1513.820312 177.140625 1511.507812 178.007812 " fill-opacity="1" fill-rule="nonzero"/><path fill="#ec1c2c" d="M 2210.355469 5.304688 L 2210.355469 77.15625 L 2361.226562 77.15625 L 2365.335938 89.730469 C 2355.835938 91.089844 2346.566406 93.371094 2337.523438 96.582031 C 2328.484375 99.792969 2319.847656 103.867188 2311.621094 108.804688 L 2311.621094 393.734375 L 2398.519531 393.734375 L 2398.519531 77.242188 L 2499.613281 77.242188 L 2499.613281 5.390625 Z M 2210.355469 5.304688 " fill-opacity="1" fill-rule="nonzero"/></svg>