<svg xmlns="http://www.w3.org/2000/svg" xmlns:xlink="http://www.w3.org/1999/xlink" width="4687" zoomAndPan="magnify" viewBox="0 0 3515.25 850.499975" height="1134" preserveAspectRatio="xMidYMid meet" version="1.0"><defs><g/><clipPath id="4f9fc0f643"><path d="M 0.175781 0 L 681 0 L 681 793.453125 L 0.175781 793.453125 Z M 0.175781 0 " clip-rule="nonzero"/></clipPath><clipPath id="ef9d5e218c"><path d="M 889 135 L 2561.496094 135 L 2561.496094 715 L 889 715 Z M 889 135 " clip-rule="nonzero"/></clipPath><clipPath id="5b86138115"><rect x="0" width="1673" y="0" height="580"/></clipPath><clipPath id="506f32a28f"><rect x="0" width="2562" y="0" height="794"/></clipPath></defs><g transform="matrix(1, 0, 0, 1, 299, 0)"><g clip-path="url(#506f32a28f)"><g clip-path="url(#4f9fc0f643)"><path fill="#8137ea" d="M 538.480469 169.992188 L 538.480469 339.980469 L 481.820312 339.980469 L 481.820312 169.992188 Z M 340.160156 169.992188 L 396.824219 169.992188 L 396.824219 339.980469 L 340.160156 339.980469 Z M 141.835938 0 L 0.179688 141.660156 L 0.179688 651.628906 L 170.167969 651.628906 L 170.167969 793.289062 L 311.828125 651.628906 L 425.15625 651.628906 L 680.140625 396.644531 L 680.140625 0 Z M 623.476562 368.3125 L 510.148438 481.640625 L 396.824219 481.640625 L 283.496094 594.96875 L 283.496094 481.640625 L 170.167969 481.640625 L 170.167969 56.664062 L 623.476562 56.664062 Z M 623.476562 368.3125 " fill-opacity="1" fill-rule="evenodd"/></g><path fill="#ffffff" d="M 510.148438 481.640625 L 623.476562 368.3125 L 623.476562 56.664062 L 170.167969 56.664062 L 170.167969 481.640625 L 283.496094 481.640625 L 283.496094 594.96875 L 396.824219 481.640625 Z M 340.160156 169.992188 L 396.824219 169.992188 L 396.824219 339.980469 L 340.160156 339.980469 Z M 538.480469 169.992188 L 481.820312 169.992188 L 481.820312 339.980469 L 538.480469 339.980469 Z M 538.480469 169.992188 " fill-opacity="1" fill-rule="evenodd"/><g clip-path="url(#ef9d5e218c)"><g transform="matrix(1, 0, 0, 1, 889, 135)"><g clip-path="url(#5b86138115)"><g fill="#ffffff" fill-opacity="1"><g transform="translate(1.279452, 459.615182)"><g><path d="M 108.234375 -269.625 L 1.90625 -269.625 L 1.90625 -332.28125 L 291.453125 -332.28125 L 291.453125 -269.625 L 185.125 -269.625 L 185.125 0 L 108.234375 0 Z M 108.234375 -269.625 "/></g></g></g><g fill="#ffffff" fill-opacity="1"><g transform="translate(279.446935, 459.615182)"><g><path d="M 444.3125 -255.375 L 351.75 0 L 280.546875 0 L 223.109375 -158.546875 L 163.765625 0 L 92.5625 0 L 0.46875 -255.375 L 70.25 -255.375 L 130.546875 -82.59375 L 193.203125 -255.375 L 255.859375 -255.375 L 316.609375 -82.59375 L 378.796875 -255.375 Z M 444.3125 -255.375 "/></g></g></g><g fill="#ffffff" fill-opacity="1"><g transform="translate(724.230205, 459.615182)"><g><path d="M 34.171875 -255.375 L 108.234375 -255.375 L 108.234375 0 L 34.171875 0 Z M 71.203125 -290.984375 C 57.597656 -290.984375 46.519531 -294.9375 37.96875 -302.84375 C 29.425781 -310.757812 25.15625 -320.570312 25.15625 -332.28125 C 25.15625 -343.988281 29.425781 -353.796875 37.96875 -361.703125 C 46.519531 -369.617188 57.597656 -373.578125 71.203125 -373.578125 C 84.804688 -373.578125 95.878906 -369.78125 104.421875 -362.1875 C 112.972656 -354.59375 117.25 -345.097656 117.25 -333.703125 C 117.25 -321.359375 112.972656 -311.148438 104.421875 -303.078125 C 95.878906 -295.015625 84.804688 -290.984375 71.203125 -290.984375 Z M 71.203125 -290.984375 "/></g></g></g><g fill="#ffffff" fill-opacity="1"><g transform="translate(867.111466, 459.615182)"><g><path d="M 198.890625 -12.34375 C 191.609375 -6.957031 182.664062 -2.921875 172.0625 -0.234375 C 161.46875 2.453125 150.316406 3.796875 138.609375 3.796875 C 108.222656 3.796875 84.722656 -3.953125 68.109375 -19.453125 C 51.503906 -34.960938 43.203125 -57.75 43.203125 -87.8125 L 43.203125 -192.71875 L 3.796875 -192.71875 L 3.796875 -249.6875 L 43.203125 -249.6875 L 43.203125 -311.875 L 117.25 -311.875 L 117.25 -249.6875 L 180.859375 -249.6875 L 180.859375 -192.71875 L 117.25 -192.71875 L 117.25 -88.765625 C 117.25 -78.003906 120.015625 -69.695312 125.546875 -63.84375 C 131.085938 -57.988281 138.921875 -55.0625 149.046875 -55.0625 C 160.753906 -55.0625 170.722656 -58.226562 178.953125 -64.5625 Z M 198.890625 -12.34375 "/></g></g></g><g fill="#ffffff" fill-opacity="1"><g transform="translate(1065.531325, 459.615182)"><g><path d="M 157.59375 3.796875 C 130.375 3.796875 105.925781 -1.816406 84.25 -13.046875 C 62.570312 -24.285156 45.640625 -39.875 33.453125 -59.8125 C 21.273438 -79.75 15.1875 -102.375 15.1875 -127.6875 C 15.1875 -153.007812 21.273438 -175.640625 33.453125 -195.578125 C 45.640625 -215.515625 62.570312 -231.097656 84.25 -242.328125 C 105.925781 -253.554688 130.375 -259.171875 157.59375 -259.171875 C 184.488281 -259.171875 207.984375 -253.554688 228.078125 -242.328125 C 248.179688 -231.097656 262.820312 -215.035156 272 -194.140625 L 214.5625 -163.296875 C 201.269531 -186.710938 182.125 -198.421875 157.125 -198.421875 C 137.820312 -198.421875 121.835938 -192.085938 109.171875 -179.421875 C 96.515625 -166.765625 90.1875 -149.519531 90.1875 -127.6875 C 90.1875 -105.851562 96.515625 -88.609375 109.171875 -75.953125 C 121.835938 -63.296875 137.820312 -56.96875 157.125 -56.96875 C 182.4375 -56.96875 201.582031 -68.675781 214.5625 -92.09375 L 272 -60.765625 C 262.820312 -40.503906 248.179688 -24.675781 228.078125 -13.28125 C 207.984375 -1.894531 184.488281 3.796875 157.59375 3.796875 Z M 157.59375 3.796875 "/></g></g></g><g fill="#ffffff" fill-opacity="1"><g transform="translate(1344.173482, 459.615182)"><g><path d="M 189.40625 -259.171875 C 221.050781 -259.171875 246.601562 -249.675781 266.0625 -230.6875 C 285.519531 -211.707031 295.25 -183.546875 295.25 -146.203125 L 295.25 0 L 221.203125 0 L 221.203125 -134.8125 C 221.203125 -155.0625 216.769531 -170.171875 207.90625 -180.140625 C 199.050781 -190.109375 186.238281 -195.09375 169.46875 -195.09375 C 150.789062 -195.09375 135.914062 -189.316406 124.84375 -177.765625 C 113.769531 -166.210938 108.234375 -149.046875 108.234375 -126.265625 L 108.234375 0 L 34.171875 0 L 34.171875 -352.21875 L 108.234375 -352.21875 L 108.234375 -228.796875 C 118.035156 -238.609375 129.898438 -246.125 143.828125 -251.34375 C 157.753906 -256.5625 172.945312 -259.171875 189.40625 -259.171875 Z M 189.40625 -259.171875 "/></g></g></g></g></g></g></g></g></svg>