<svg xmlns="http://www.w3.org/2000/svg" xmlns:xlink="http://www.w3.org/1999/xlink" width="4687" zoomAndPan="magnify" viewBox="0 0 3515.25 850.499975" height="1134" preserveAspectRatio="xMidYMid meet" version="1.0"><defs><clipPath id="cb89fd84f5"><path d="M 6 1 L 979 1 L 979 681.652344 L 6 681.652344 Z M 6 1 " clip-rule="nonzero"/></clipPath><clipPath id="d77ad2d912"><rect x="0" width="2853" y="0" height="682"/></clipPath></defs><g transform="matrix(1, 0, 0, 1, 227, 84)"><g clip-path="url(#d77ad2d912)"><g clip-path="url(#cb89fd84f5)"><path fill="#ed1d24" d="M 957.992188 107.285156 C 946.8125 65.453125 913.875 32.5 872.050781 21.320312 C 796.234375 1 492.246094 1 492.246094 1 C 492.246094 1 188.253906 1 112.441406 21.320312 C 70.621094 32.5 37.675781 65.453125 26.5 107.285156 C 6.183594 183.117188 6.183594 341.324219 6.183594 341.324219 C 6.183594 341.324219 6.183594 499.539062 26.5 575.367188 C 37.675781 617.195312 70.621094 650.152344 112.441406 661.328125 C 188.253906 681.652344 492.246094 681.652344 492.246094 681.652344 C 492.246094 681.652344 796.234375 681.652344 872.050781 661.328125 C 913.875 650.152344 946.8125 617.195312 957.992188 575.367188 C 978.308594 499.539062 978.308594 341.324219 978.308594 341.324219 C 978.308594 341.324219 978.308594 183.117188 957.992188 107.285156 " fill-opacity="1" fill-rule="nonzero"/></g><path fill="#ffffff" d="M 395.03125 487.179688 L 647.589844 341.328125 L 395.03125 195.472656 Z M 395.03125 487.179688 " fill-opacity="1" fill-rule="nonzero"/><path fill="#ffffff" d="M 1575.230469 517.257812 C 1579.660156 505.703125 1581.882812 486.8125 1581.882812 460.605469 L 1581.882812 350.164062 C 1581.882812 324.726562 1579.660156 306.132812 1575.230469 294.371094 C 1570.796875 282.617188 1562.984375 276.734375 1551.804688 276.734375 C 1541.003906 276.734375 1533.378906 282.617188 1528.953125 294.371094 C 1524.519531 306.132812 1522.300781 324.726562 1522.300781 350.164062 L 1522.300781 460.605469 C 1522.300781 486.8125 1524.417969 505.703125 1528.667969 517.257812 C 1532.902344 528.824219 1540.613281 534.601562 1551.804688 534.601562 C 1562.984375 534.601562 1570.796875 528.824219 1575.230469 517.257812 Z M 1485.570312 572.765625 C 1469.554688 561.984375 1458.175781 545.210938 1451.4375 522.460938 C 1444.683594 499.726562 1441.316406 469.464844 1441.316406 431.691406 L 1441.316406 380.230469 C 1441.316406 342.074219 1445.164062 311.425781 1452.882812 288.300781 C 1460.59375 265.171875 1472.636719 248.3125 1489.039062 237.710938 C 1505.425781 227.113281 1526.929688 221.808594 1553.542969 221.808594 C 1579.765625 221.808594 1600.78125 227.210938 1616.597656 238 C 1632.40625 248.789062 1643.976562 265.660156 1651.308594 288.589844 C 1658.625 311.527344 1662.296875 342.074219 1662.296875 380.230469 L 1662.296875 431.691406 C 1662.296875 469.464844 1658.726562 499.824219 1651.59375 522.753906 C 1644.457031 545.691406 1632.882812 562.460938 1616.882812 573.054688 C 1600.875 583.652344 1579.1875 588.957031 1551.804688 588.957031 C 1523.644531 588.957031 1501.566406 583.554688 1485.570312 572.765625 " fill-opacity="1" fill-rule="nonzero"/><path fill="#ffffff" d="M 2724.382812 283.363281 C 2720.339844 288.375 2717.628906 296.566406 2716.285156 307.929688 C 2714.925781 319.304688 2714.265625 336.550781 2714.265625 359.679688 L 2714.265625 385.117188 L 2772.683594 385.117188 L 2772.683594 359.679688 C 2772.683594 336.941406 2771.914062 319.691406 2770.375 307.929688 C 2768.828125 296.175781 2766.039062 287.894531 2761.992188 283.074219 C 2757.933594 278.253906 2751.667969 275.84375 2743.1875 275.84375 C 2734.695312 275.84375 2728.429688 278.355469 2724.382812 283.363281 Z M 2714.265625 432.53125 L 2714.265625 450.457031 C 2714.265625 473.203125 2714.925781 490.257812 2716.285156 501.625 C 2717.628906 513 2720.417969 521.285156 2724.675781 526.492188 C 2728.917969 531.691406 2735.460938 534.296875 2744.34375 534.296875 C 2756.289062 534.296875 2764.496094 529.671875 2768.929688 520.414062 C 2773.359375 511.164062 2775.769531 495.75 2776.15625 474.160156 L 2845 478.210938 C 2845.386719 481.300781 2845.578125 485.539062 2845.578125 490.925781 C 2845.578125 523.695312 2836.617188 548.175781 2818.679688 564.363281 C 2800.753906 580.546875 2775.382812 588.644531 2742.605469 588.644531 C 2703.273438 588.644531 2675.691406 576.3125 2659.882812 551.636719 C 2644.0625 526.980469 2636.160156 488.816406 2636.160156 437.160156 L 2636.160156 375.289062 C 2636.160156 322.097656 2644.355469 283.269531 2660.75 258.785156 C 2677.136719 234.308594 2705.199219 222.070312 2744.925781 222.070312 C 2772.300781 222.070312 2793.320312 227.082031 2807.976562 237.101562 C 2822.625 247.132812 2832.949219 262.742188 2838.925781 283.9375 C 2844.90625 305.140625 2847.898438 334.4375 2847.898438 371.820312 L 2847.898438 432.53125 L 2714.265625 432.53125 " fill-opacity="1" fill-rule="nonzero"/><path fill="#ffffff" d="M 1291.171875 425.894531 L 1200.34375 98.058594 L 1279.597656 98.058594 L 1311.414062 246.65625 C 1319.519531 283.28125 1325.492188 314.503906 1329.347656 340.320312 L 1331.664062 340.320312 C 1334.359375 321.820312 1340.339844 290.796875 1349.597656 247.234375 L 1382.570312 98.058594 L 1461.824219 98.058594 L 1369.847656 425.894531 L 1369.847656 583.171875 L 1291.171875 583.171875 L 1291.171875 425.894531 " fill-opacity="1" fill-rule="nonzero"/><path fill="#ffffff" d="M 1920.058594 228.742188 L 1920.058594 583.171875 L 1857.578125 583.171875 L 1850.632812 539.808594 L 1848.902344 539.808594 C 1831.929688 572.570312 1806.472656 588.949219 1772.539062 588.949219 C 1749.015625 588.949219 1731.660156 581.25 1720.472656 565.824219 C 1709.289062 550.414062 1703.699219 526.316406 1703.699219 493.554688 L 1703.699219 228.742188 L 1783.535156 228.742188 L 1783.535156 488.925781 C 1783.535156 504.738281 1785.273438 516.007812 1788.742188 522.75 C 1792.210938 529.5 1797.996094 532.867188 1806.09375 532.867188 C 1813.039062 532.867188 1819.691406 530.753906 1826.050781 526.503906 C 1832.417969 522.265625 1837.136719 516.878906 1840.226562 510.324219 L 1840.226562 228.742188 L 1920.058594 228.742188 " fill-opacity="1" fill-rule="nonzero"/><path fill="#ffffff" d="M 2329.550781 228.742188 L 2329.550781 583.171875 L 2267.070312 583.171875 L 2260.128906 539.808594 L 2258.402344 539.808594 C 2241.414062 572.570312 2215.964844 588.949219 2182.03125 588.949219 C 2158.507812 588.949219 2141.152344 581.25 2129.964844 565.824219 C 2118.78125 550.414062 2113.191406 526.316406 2113.191406 493.554688 L 2113.191406 228.742188 L 2193.027344 228.742188 L 2193.027344 488.925781 C 2193.027344 504.738281 2194.757812 516.007812 2198.226562 522.75 C 2201.703125 529.5 2207.488281 532.867188 2215.585938 532.867188 C 2222.53125 532.867188 2229.183594 530.753906 2235.542969 526.503906 C 2241.910156 522.265625 2246.628906 516.878906 2249.71875 510.324219 L 2249.71875 228.742188 L 2329.550781 228.742188 " fill-opacity="1" fill-rule="nonzero"/><path fill="#ffffff" d="M 2136.992188 162.25 L 2057.738281 162.25 L 2057.738281 583.171875 L 1979.644531 583.171875 L 1979.644531 162.25 L 1900.390625 162.25 L 1900.390625 98.070312 L 2136.992188 98.070312 L 2136.992188 162.25 " fill-opacity="1" fill-rule="nonzero"/><path fill="#ffffff" d="M 2520.59375 429.972656 C 2520.59375 455.800781 2519.523438 476.039062 2517.40625 490.679688 C 2515.289062 505.335938 2511.71875 515.742188 2506.703125 521.902344 C 2501.691406 528.070312 2494.929688 531.152344 2486.460938 531.152344 C 2479.894531 531.152344 2473.824219 529.617188 2468.234375 526.523438 C 2462.636719 523.445312 2458.113281 518.820312 2454.636719 512.648438 L 2454.636719 311.441406 C 2457.335938 301.8125 2461.964844 293.90625 2468.523438 287.738281 C 2475.082031 281.578125 2482.207031 278.488281 2489.921875 278.488281 C 2498.027344 278.488281 2504.285156 281.667969 2508.726562 288.023438 C 2513.15625 294.382812 2516.246094 305.082031 2517.984375 320.117188 C 2519.722656 335.148438 2520.59375 356.539062 2520.59375 384.292969 Z M 2593.769531 285.398438 C 2588.941406 263.050781 2581.128906 246.863281 2570.335938 236.832031 C 2559.535156 226.816406 2544.6875 221.804688 2525.792969 221.804688 C 2511.140625 221.804688 2497.449219 225.949219 2484.722656 234.230469 C 2472 242.523438 2462.15625 253.414062 2455.21875 266.902344 L 2454.632812 266.902344 L 2454.636719 80.144531 L 2377.703125 80.144531 L 2377.703125 583.164062 L 2443.644531 583.164062 L 2451.75 549.636719 L 2453.480469 549.636719 C 2459.644531 561.582031 2468.902344 571.027344 2481.246094 577.964844 C 2493.585938 584.902344 2507.285156 588.371094 2522.324219 588.371094 C 2549.3125 588.371094 2569.175781 575.9375 2581.910156 551.078125 C 2594.632812 526.210938 2601 487.386719 2601 434.574219 L 2601 378.488281 C 2601 338.792969 2598.582031 307.761719 2593.769531 285.398438 " fill-opacity="1" fill-rule="nonzero"/></g></g></svg>